<?xml version="1.0" encoding="UTF-8" standalone="no"?>
<!-- Created with Inkscape (http://www.inkscape.org/) -->

<svg
   width="32"
   height="32"
   viewBox="0 0 32 32"
   version="1.1"
   id="svg1"
   inkscape:version="1.3.2 (091e20ef0f, 2023-11-25)"
   sodipodi:docname="system-reboot.svg"
   xmlns:inkscape="http://www.inkscape.org/namespaces/inkscape"
   xmlns:sodipodi="http://sodipodi.sourceforge.net/DTD/sodipodi-0.dtd"
   xmlns:xlink="http://www.w3.org/1999/xlink"
   xmlns="http://www.w3.org/2000/svg"
   xmlns:svg="http://www.w3.org/2000/svg">
  <sodipodi:namedview
     id="namedview1"
     pagecolor="#ffffff"
     bordercolor="#999999"
     borderopacity="1"
     inkscape:showpageshadow="2"
     inkscape:pageopacity="0"
     inkscape:pagecheckerboard="0"
     inkscape:deskcolor="#d1d1d1"
     inkscape:document-units="px"
     showgrid="true"
     inkscape:zoom="15.400485"
     inkscape:cx="18.05138"
     inkscape:cy="15.194327"
     inkscape:window-width="1920"
     inkscape:window-height="996"
     inkscape:window-x="0"
     inkscape:window-y="0"
     inkscape:window-maximized="1"
     inkscape:current-layer="layer1">
    <inkscape:grid
       id="grid1"
       units="px"
       originx="18"
       originy="-58"
       spacingx="1"
       spacingy="1"
       empcolor="#0099e5"
       empopacity="0.30196078"
       color="#0099e5"
       opacity="0.14901961"
       empspacing="5"
       dotted="false"
       gridanglex="30"
       gridanglez="30"
       visible="true" />
  </sodipodi:namedview>
  <defs
     id="defs1">
    <radialGradient
       gradientUnits="userSpaceOnUse"
       r="11"
       fy="12.056536"
       fx="19.061531"
       cy="12.056536"
       cx="19.061531"
       id="radialGradient902"
       xlink:href="#linearGradient900"
       inkscape:collect="always"
       gradientTransform="matrix(1.4545461,0,0,1.4368371,48.26754,-1.3251818)" />
    <linearGradient
       id="linearGradient900"
       inkscape:collect="always">
      <stop
         id="stop896"
         offset="0"
         style="stop-color:#008080;stop-opacity:1;" />
      <stop
         id="stop898"
         offset="1"
         style="stop-color:#008080;stop-opacity:0;" />
    </linearGradient>
  </defs>
  <g
     inkscape:label="Layer 1"
     inkscape:groupmode="layer"
     id="layer1"
     transform="translate(18,-58)">
    <g
       transform="translate(-78,58)"
       id="system-reboot-5">
      <rect
         style="color:#000000;display:inline;overflow:visible;visibility:visible;opacity:0.01;fill:#000000;fill-opacity:0.00392157;stroke:none;stroke-width:6.66662;marker:none;enable-background:accumulate"
         id="rect4570-72"
         width="32"
         height="32"
         x="60"
         y="0" />
      <path
         id="path4984-0-94-2"
         style="color:#000000;display:inline;overflow:visible;visibility:visible;fill:url(#radialGradient902);fill-opacity:1;fill-rule:evenodd;stroke:none;stroke-width:4.36369;marker:none;enable-background:accumulate"
         d="M 64.363631,0 H 87.636369 C 90.545462,0 92,1.4545462 92,4.3636369 V 27.636369 C 92,30.545462 90.545462,32 87.636369,32 H 64.363631 C 61.454538,32 60,30.545462 60,27.636369 V 4.3636369 C 60,1.4545462 61.454538,0 64.363631,0 Z m 11.618547,5.9508911 c -2.572591,-0.0011 -5.145237,0.9765479 -7.100449,2.9352799 -3.91014,3.917365 -3.912116,10.306579 0,14.225435 3.912415,3.918692 10.29045,3.924188 14.200894,0.0066 l -1.937488,-1.944047 c -2.863425,2.868235 -7.458986,2.867595 -10.323679,-9.94e-4 -2.864612,-2.869631 -2.865995,-7.47327 -0.0016,-10.341517 2.773731,-2.778402 7.167942,-2.855865 10.044637,-0.249995 -1.146432,1.198153 -2.132917,2.307592 -2.082593,2.508928 0.126742,0.506816 8.066328,2.491723 8.446428,2.111604 C 87.607824,14.821893 85.62292,6.88006 85.116099,6.75334 84.926397,6.70599 83.921883,7.594199 82.810269,8.64617 80.890093,6.858389 78.439454,5.953213 75.982104,5.952 Z"
         inkscape:connector-curvature="0" />
    </g>
  </g>
</svg>
