<?xml version="1.0" encoding="UTF-8" standalone="no"?>
<svg
   xmlns:dc="http://purl.org/dc/elements/1.1/"
   xmlns:cc="http://creativecommons.org/ns#"
   xmlns:rdf="http://www.w3.org/1999/02/22-rdf-syntax-ns#"
   xmlns:svg="http://www.w3.org/2000/svg"
   xmlns="http://www.w3.org/2000/svg"
   xmlns:xlink="http://www.w3.org/1999/xlink"
   xmlns:sodipodi="http://sodipodi.sourceforge.net/DTD/sodipodi-0.dtd"
   xmlns:inkscape="http://www.inkscape.org/namespaces/inkscape"
   width="54"
   height="32"
   id="svg3613"
   version="1.1"
   sodipodi:docname="applications.svg"
   inkscape:version="0.92.4 (5da689c313, 2019-01-14)">
  <sodipodi:namedview
     pagecolor="#ffffff"
     bordercolor="#666666"
     borderopacity="1"
     objecttolerance="10"
     gridtolerance="10"
     guidetolerance="10"
     inkscape:pageopacity="0"
     inkscape:pageshadow="2"
     inkscape:window-width="1920"
     inkscape:window-height="1028"
     id="namedview12"
     showgrid="false"
     inkscape:zoom="14.624742"
     inkscape:cx="16.631331"
     inkscape:cy="8.5327541"
     inkscape:window-x="0"
     inkscape:window-y="0"
     inkscape:window-maximized="1"
     inkscape:current-layer="svg3613">
    <inkscape:grid
       type="xygrid"
       id="grid834" />
  </sodipodi:namedview>
  <metadata
     id="metadata13">
    <rdf:RDF>
      <cc:Work
         rdf:about="">
        <dc:format>image/svg+xml</dc:format>
        <dc:type
           rdf:resource="http://purl.org/dc/dcmitype/StillImage" />
        <dc:title />
      </cc:Work>
    </rdf:RDF>
  </metadata>
  <defs
     id="defs3615">
    <linearGradient
       inkscape:collect="always"
       id="linearGradient840">
      <stop
         style="stop-color:#008080;stop-opacity:1;"
         offset="0"
         id="stop836" />
      <stop
         style="stop-color:#008080;stop-opacity:0;"
         offset="1"
         id="stop838" />
    </linearGradient>
    <linearGradient
       inkscape:collect="always"
       id="linearGradient830">
      <stop
         style="stop-color:#008080;stop-opacity:1;"
         offset="0"
         id="stop826" />
      <stop
         style="stop-color:#008080;stop-opacity:0;"
         offset="1"
         id="stop828" />
    </linearGradient>
    <style
       type="text/css"
       id="current-color-scheme">
      .ColorScheme-Text {
        color:#31363b;
      }
      .ColorScheme-Background{
        color:#E9E8E8;
      }
      .ColorScheme-ViewText {
        color:#31363b;
      }
      .ColorScheme-ViewBackground{
        color:#ffffff;
      }
      .ColorScheme-ViewHover {
        color:#000000;
      }
      .ColorScheme-ViewFocus{
        color:#5a5a5a;
      }
      .ColorScheme-ButtonText {
        color:#31363b;
      }
      .ColorScheme-ButtonBackground{
        color:#E9E8E8;
      }
      .ColorScheme-ButtonHover {
        color:#1489ff;
      }
      .ColorScheme-ButtonFocus{
        color:#2B74C7;
      }
</style>
    <radialGradient
       inkscape:collect="always"
       xlink:href="#linearGradient830"
       id="radialGradient832"
       cx="11"
       cy="13.000005"
       fx="11"
       fy="13.000005"
       r="11"
       gradientUnits="userSpaceOnUse" />
    <radialGradient
       inkscape:collect="always"
       xlink:href="#linearGradient840"
       id="radialGradient842"
       cx="16"
       cy="8.0000052"
       fx="16"
       fy="8.0000052"
       r="16"
       gradientUnits="userSpaceOnUse" />
  </defs>
  <g
     transform="matrix(1.0000029,0,0,1.000001,-420.71555,-516.79125)"
     id="22-22-applications-other">
    <rect
       style="opacity:1;fill:url(#radialGradient832);fill-opacity:1;stroke:none"
       id="rect3028"
       width="22"
       height="22"
       x="-7.1556997e-08"
       y="2.0000052"
       transform="matrix(0.99999706,0,0,0.99999899,420.71433,524.79072)" />
    <path
       style="color:#31363b;fill:#000000;fill-opacity:1;stroke:none;stroke-width:0.62500018"
       d="m 426.31431,532.79072 v 4.37499 h 4.37499 v -4.37499 z m 5.62499,0 v 4.37499 h 4.37499 v -4.37499 z m -4.99999,0.625 h 3.12499 v 3.12499 h -3.12499 z m 5.62498,0 h 3.125 v 3.12499 h -3.125 z m -6.24998,5 v 4.37499 h 4.37499 v -4.37499 z m 5.62499,0 v 4.37499 h 0.62499 3.125 0.625 v -0.625 -3.12499 -0.625 h -0.625 -3.125 z m -4.99999,0.625 h 3.12499 v 3.12499 h -3.12499 z m 5.62498,0 h 3.125 v 3.12499 h -3.125 z"
       id="rect4298"
       class="ColorScheme-Text"
       inkscape:connector-curvature="0" />
  </g>
  <g
     transform="matrix(1.0000028,0,0,1.0000009,-398.71551,-516.79118)"
     id="applications-other">
    <rect
       style="opacity:1;fill:url(#radialGradient842);fill-opacity:1;stroke:none"
       id="rect2994"
       width="32"
       height="32"
       x="-7.1557004e-08"
       y="-7.9999948"
       transform="matrix(0.99999706,0,0,0.99999899,420.71433,524.79072)" />
    <path
       style="color:#31363b;fill:#000000;fill-opacity:1;stroke:none;stroke-width:0.58333433"
       d="m 429.51431,526.6907 v 5.83323 l 5.83321,1e-5 v -5.83322 z m 8.16669,2e-5 v 5.83322 l 5.83326,-1e-5 v -5.83323 z m -7.58346,0.58322 h 4.66675 v 4.66673 h -4.66675 z m 8.16673,0 h 4.66672 v 4.66673 h -4.66672 z m -8.74996,7.58349 v 5.83324 l 5.83321,2e-5 v -5.83324 z m 8.16669,2e-5 v 5.83324 l 1.16653,-2e-5 h 3.49999 1.16674 v -1.16674 -3.49999 -1.16651 h -1.16674 -3.49999 z m -7.58346,0.58322 h 4.66675 v 4.66676 h -4.66675 z m 8.16673,0 h 4.66672 v 4.66676 h -4.66672 z"
       id="path2996"
       class="ColorScheme-Text"
       inkscape:connector-curvature="0" />
  </g>
</svg>
