<?xml version="1.0" encoding="UTF-8" standalone="no"?>
<svg
   xmlns:dc="http://purl.org/dc/elements/1.1/"
   xmlns:cc="http://creativecommons.org/ns#"
   xmlns:rdf="http://www.w3.org/1999/02/22-rdf-syntax-ns#"
   xmlns:svg="http://www.w3.org/2000/svg"
   xmlns="http://www.w3.org/2000/svg"
   xmlns:xlink="http://www.w3.org/1999/xlink"
   xmlns:sodipodi="http://sodipodi.sourceforge.net/DTD/sodipodi-0.dtd"
   xmlns:inkscape="http://www.inkscape.org/namespaces/inkscape"
   width="54"
   height="32"
   id="svg3613"
   version="1.1"
   sodipodi:docname="applications.svg"
   inkscape:version="0.92.4 (5da689c313, 2019-01-14)">
  <sodipodi:namedview
     pagecolor="#ffffff"
     bordercolor="#666666"
     borderopacity="1"
     objecttolerance="10"
     gridtolerance="10"
     guidetolerance="10"
     inkscape:pageopacity="0"
     inkscape:pageshadow="2"
     inkscape:window-width="1920"
     inkscape:window-height="1017"
     id="namedview12"
     showgrid="false"
     inkscape:zoom="5.1706271"
     inkscape:cx="48.156921"
     inkscape:cy="20.567324"
     inkscape:window-x="0"
     inkscape:window-y="0"
     inkscape:window-maximized="1"
     inkscape:current-layer="svg3613"
     inkscape:lockguides="true">
    <inkscape:grid
       type="xygrid"
       id="grid834" />
  </sodipodi:namedview>
  <metadata
     id="metadata13">
    <rdf:RDF>
      <cc:Work
         rdf:about="">
        <dc:format>image/svg+xml</dc:format>
        <dc:type
           rdf:resource="http://purl.org/dc/dcmitype/StillImage" />
        <dc:title />
      </cc:Work>
    </rdf:RDF>
  </metadata>
  <defs
     id="defs3615">
    <linearGradient
       inkscape:collect="always"
       id="linearGradient840">
      <stop
         style="stop-color:#008080;stop-opacity:1;"
         offset="0"
         id="stop836" />
      <stop
         style="stop-color:#008080;stop-opacity:0;"
         offset="1"
         id="stop838" />
    </linearGradient>
    <linearGradient
       inkscape:collect="always"
       id="linearGradient830">
      <stop
         style="stop-color:#008080;stop-opacity:1;"
         offset="0"
         id="stop826" />
      <stop
         style="stop-color:#008080;stop-opacity:0;"
         offset="1"
         id="stop828" />
    </linearGradient>
    <style
       type="text/css"
       id="current-color-scheme">
      }
</style>
    <radialGradient
       inkscape:collect="always"
       xlink:href="#linearGradient830"
       id="radialGradient832"
       cx="11"
       cy="13.000005"
       fx="11"
       fy="13.000005"
       r="11"
       gradientUnits="userSpaceOnUse" />
    <radialGradient
       inkscape:collect="always"
       xlink:href="#linearGradient840"
       id="radialGradient842"
       cx="16"
       cy="8.0000052"
       fx="16"
       fy="8.0000052"
       r="16"
       gradientUnits="userSpaceOnUse" />
  </defs>
  <g
     transform="matrix(1.0000029,0,0,1.000001,-420.71555,-516.79125)"
     id="22-22-applications-other">
    <rect
       style="opacity:1;fill:url(#radialGradient832);fill-opacity:1;stroke:none"
       id="rect3028"
       width="22"
       height="22"
       x="-7.1556997e-08"
       y="2.0000052"
       transform="matrix(0.99999706,0,0,0.99999899,420.71433,524.79072)" />
    <path
       style="color:#31363b;fill:#000000;fill-opacity:1;stroke:none;stroke-width:0.7500003"
       d="m 425.81432,531.79072 v 5.24999 h 5.24999 v -5.24999 z m 6.74999,0 v 5.24999 h 5.24999 v -5.24999 z m -5.99999,0.75 h 3.74999 v 3.74999 h -3.74999 z m 6.74998,0 h 3.75 v 3.74999 h -3.75 z m -7.49998,6 v 5.24999 h 5.24999 v -5.24999 z m 6.74999,0 v 5.24999 h 0.74999 3.75 0.75 v -0.75 -3.74999 -0.75 h -0.75 -3.75 z m -5.99999,0.75 h 3.74999 v 3.74999 h -3.74999 z m 6.74998,0 h 3.75 v 3.74999 h -3.75 z"
       id="rect4298"
       class="ColorScheme-Text"
       inkscape:connector-curvature="0" />
  </g>
  <g
     transform="matrix(1.0000028,0,0,1.0000009,-398.71551,-516.79118)"
     id="applications-other">
    <rect
       style="opacity:1;fill:url(#radialGradient842);fill-opacity:1;stroke:none"
       id="rect2994"
       width="32"
       height="32"
       x="-7.1557004e-08"
       y="-7.9999948"
       transform="matrix(0.99999706,0,0,0.99999899,420.71433,524.79072)" />
    <path
       style="color:#31363b;fill:#000000;fill-opacity:1;stroke:none;stroke-width:0.75000101"
       d="m 427.71431,523.89071 v 7.49989 l 7.49989,1e-5 v -7.49988 z m 10.50002,2e-5 v 7.49988 l 7.49992,-1e-5 v -7.49989 z m -9.75009,0.74988 h 6.00005 v 6.00006 h -6.00005 z m 10.50003,0 h 6.00005 v 6.00006 h -6.00005 z m -11.24996,9.75013 v 7.49993 l 7.49989,2e-5 v -7.49992 z m 10.50002,3e-5 v 7.49992 l 1.49988,-2e-5 h 4.49999 1.50005 v -1.50004 -4.50002 -1.49987 h -1.50005 -4.49999 z m -9.75009,0.7499 h 6.00005 v 6.00006 h -6.00005 z m 10.50003,0 h 6.00005 v 6.00006 h -6.00005 z"
       id="path2996"
       class="ColorScheme-Text"
       inkscape:connector-curvature="0" />
  </g>
</svg>
