<?xml version="1.0" encoding="UTF-8" standalone="no"?>
<svg
   xmlns:dc="http://purl.org/dc/elements/1.1/"
   xmlns:cc="http://creativecommons.org/ns#"
   xmlns:rdf="http://www.w3.org/1999/02/22-rdf-syntax-ns#"
   xmlns:svg="http://www.w3.org/2000/svg"
   xmlns="http://www.w3.org/2000/svg"
   xmlns:sodipodi="http://sodipodi.sourceforge.net/DTD/sodipodi-0.dtd"
   xmlns:inkscape="http://www.inkscape.org/namespaces/inkscape"
   version="1.1"
   id="svg2"
   viewBox="0 0 32 32"
   inkscape:version="1.0.2 (e86c870879, 2021-01-15)"
   sodipodi:docname="apport.svg"
   width="32"
   height="32">
  <sodipodi:namedview
     pagecolor="#ffffff"
     bordercolor="#666666"
     borderopacity="1"
     objecttolerance="10"
     gridtolerance="10"
     guidetolerance="10"
     inkscape:pageopacity="0"
     inkscape:pageshadow="2"
     inkscape:window-width="1920"
     inkscape:window-height="1007"
     id="namedview12"
     showgrid="false"
     inkscape:zoom="10.429825"
     inkscape:cx="15.70657"
     inkscape:cy="15.601582"
     inkscape:window-x="0"
     inkscape:window-y="0"
     inkscape:window-maximized="1"
     inkscape:current-layer="svg2"
     inkscape:document-rotation="0"
     inkscape:lockguides="false">
    <inkscape:grid
       type="xygrid"
       id="grid838"
       originx="0"
       originy="0" />
  </sodipodi:namedview>
  <metadata
     id="metadata18">
    <rdf:RDF>
      <cc:Work
         rdf:about="">
        <dc:format>image/svg+xml</dc:format>
        <dc:type
           rdf:resource="http://purl.org/dc/dcmitype/StillImage" />
        <dc:title />
      </cc:Work>
    </rdf:RDF>
  </metadata>
  <defs
     id="defs3051">
    <style
       id="current-color-scheme"
       type="text/css" />
  </defs>
  <g
     id="apport"
     transform="translate(-22,10)">
    <path
       id="path14"
       d="M 22,-10 V 22 H 54 V -10 Z"
       style="fill:none" />
    <path
       d="M 45.746072,9.531227 H 45.040109 V 3.883513 a 7.0612298,7.0612298 0 0 0 -5.64772,-6.9173726 v -1.5542095 a 1.411931,1.411931 0 0 0 -2.823862,0 v 1.5542095 a 7.0612298,7.0612298 0 0 0 -5.64772,6.9173726 v 5.647714 h -0.705965 a 2.1178947,2.1178947 0 0 0 0,4.235785 h 15.53123 a 2.1178947,2.1178947 0 0 0 0,-4.235785 z m 0,2.823858 h -15.53123 a 0.70596746,0.70596746 0 0 1 0,-1.411928 h 2.117895 V 3.883513 a 5.6477198,5.6477198 0 0 1 11.295438,0 v 7.059644 h 2.117897 a 0.70596746,0.70596746 0 0 1 0,1.411928 z m -10.589475,2.82386 h 5.647718 a 2.8238602,2.8238602 0 0 1 -5.647718,0 z M 37.274493,6.001396 V 1.765613 a 0.70596568,0.70596568 0 0 1 1.411929,0 v 4.235783 a 0.70596568,0.70596568 0 0 1 -1.411929,0 z m 1.412012,2.823951 a 0.70596482,0.70596482 0 1 1 -0.705969,-0.70596 0.70596482,0.70596482 0 0 1 0.705969,0.70596 z"
       id="path4"
       style="fill:#d3dae3;fill-opacity:1;stroke-width:1.4119" />
  </g>
  <g
     id="22-22-apport"
     transform="translate(-22,10)">
    <path
       id="path9"
       d="M 0,0 V 22 H 22 V 0 Z"
       style="fill:none" />
    <path
       d="M 16.165328,13.354422 H 15.694672 V 9.5891817 A 4.7076097,4.7076098 0 0 0 11.929429,4.9774765 v -1.036163 a 0.9413135,0.94131353 0 0 0 -1.882627,0 v 1.036163 A 4.7076097,4.7076098 0 0 0 6.2815581,9.5891817 v 3.7652403 h -0.470654 a 1.4119669,1.4119669 0 0 0 0,2.823933 H 16.165328 a 1.4119669,1.4119669 0 0 0 0,-2.823933 z m 0,1.882623 H 5.8109041 a 0.4706573,0.47065731 0 0 1 0,-0.941314 h 1.411964 V 9.5891817 a 3.7652451,3.7652452 0 0 1 7.5304879,0 v 4.7065493 h 1.411972 a 0.4706573,0.47065731 0 0 1 0,0.941314 z m -7.0598369,1.882621 h 3.7652419 a 1.8826225,1.8826226 0 0 1 -3.7652419,0 z M 10.517459,11.001142 V 8.1772116 a 0.47065611,0.47065612 0 0 1 0.941307,0 v 2.8239304 a 0.47065611,0.47065612 0 0 1 -0.941307,0 z m 0.941368,1.882683 a 0.47065555,0.47065556 0 1 1 -0.470658,-0.470656 0.47065555,0.47065556 0 0 1 0.470658,0.470656 z"
       id="path4-3"
       style="fill:#d3dae3;fill-opacity:1;stroke-width:0.941298" />
  </g>
</svg>
