<?xml version="1.0" encoding="UTF-8" standalone="no"?>
<svg
   width="32"
   height="32"
   version="1.1"
   id="svg12"
   sodipodi:docname="compass.svg"
   inkscape:version="1.1.2 (0a00cf5339, 2022-02-04)"
   xmlns:inkscape="http://www.inkscape.org/namespaces/inkscape"
   xmlns:sodipodi="http://sodipodi.sourceforge.net/DTD/sodipodi-0.dtd"
   xmlns:xlink="http://www.w3.org/1999/xlink"
   xmlns="http://www.w3.org/2000/svg"
   xmlns:svg="http://www.w3.org/2000/svg"
   xmlns:rdf="http://www.w3.org/1999/02/22-rdf-syntax-ns#"
   xmlns:cc="http://creativecommons.org/ns#"
   xmlns:dc="http://purl.org/dc/elements/1.1/">
  <g
     id="22-22-compass"
     transform="translate(32.000012,9.9999997)">
    <rect
       style="fill:url(#radialGradient869-3);fill-opacity:1;stroke:none;stroke-width:0.6875"
       id="rect2994-2"
       width="22"
       height="22"
       x="0"
       y="0" />
    <path
       d="M 7.7961744,13.825133 12.487118,12.334241 13.982782,7.658258 9.2918374,9.149153 Z m 2.5834176,-3.659463 1.495664,-0.474375 -0.475893,1.490892 -1.4956636,0.474376 z"
       id="path2-2-3-7-9"
       style="fill:#000000;fill-opacity:1;stroke-width:0.678764" />
    <path
       d="m 11.021999,4.125 c -3.7933496,0 -6.8969996,3.09375 -6.8969996,6.875 0,3.78125 3.10365,6.875 6.8969996,6.875 3.793349,0 6.897,-3.09375 6.897,-6.875 0,-3.78125 -3.103651,-6.875 -6.897,-6.875 z m 0,12.644788 C 8.0182704,16.735493 5.2505744,14.765241 5.2337454,11 5.2181354,7.507416 7.9873194,5.230222 11.021999,5.230222 c 3.03468,0 5.841848,2.454256 5.788238,5.769778 -0.05677,3.511022 -2.753758,5.804431 -5.788238,5.769788 z"
       id="path4-3-9-6-5-1"
       style="fill:#000000;fill-opacity:1;stroke-width:0.688607"
       sodipodi:nodetypes="ssssssssss" />
  </g>
  <metadata
     id="metadata18">
    <rdf:RDF>
      <cc:Work
         rdf:about="">
        <dc:format>image/svg+xml</dc:format>
        <dc:type
           rdf:resource="http://purl.org/dc/dcmitype/StillImage" />
      </cc:Work>
    </rdf:RDF>
  </metadata>
  <defs
     id="defs16">
    <linearGradient
       inkscape:collect="always"
       id="linearGradient960">
      <stop
         style="stop-color:#008080;stop-opacity:1;"
         offset="0"
         id="stop956" />
      <stop
         style="stop-color:#008080;stop-opacity:0;"
         offset="1"
         id="stop958" />
    </linearGradient>
    <radialGradient
       inkscape:collect="always"
       xlink:href="#linearGradient960"
       id="radialGradient869"
       cx="16"
       cy="8.0000048"
       fx="16"
       fy="8.0000048"
       r="16"
       gradientUnits="userSpaceOnUse"
       gradientTransform="translate(-9.099404e-7,7.9999953)" />
    <radialGradient
       inkscape:collect="always"
       xlink:href="#linearGradient960"
       id="radialGradient869-3"
       cx="16"
       cy="8.0000048"
       fx="16"
       fy="8.0000048"
       r="16"
       gradientUnits="userSpaceOnUse"
       gradientTransform="matrix(0.6875,0,0,0.6875,-1.5616093e-6,5.499997)" />
  </defs>
  <sodipodi:namedview
     pagecolor="#ffffff"
     bordercolor="#666666"
     borderopacity="1"
     objecttolerance="10"
     gridtolerance="10"
     guidetolerance="10"
     inkscape:pageopacity="0"
     inkscape:pageshadow="2"
     inkscape:window-width="1920"
     inkscape:window-height="1009"
     id="namedview14"
     showgrid="false"
     inkscape:zoom="8"
     inkscape:cx="29.3125"
     inkscape:cy="8.875"
     inkscape:window-x="0"
     inkscape:window-y="0"
     inkscape:window-maximized="1"
     inkscape:current-layer="svg12"
     inkscape:document-rotation="0"
     inkscape:lockguides="false"
     inkscape:pagecheckerboard="0">
    <inkscape:grid
       type="xygrid"
       id="grid880"
       originx="32.000012"
       originy="9.9999997" />
  </sodipodi:namedview>
  <g
     id="compass">
    <rect
       style="fill:url(#radialGradient869);fill-opacity:1;stroke:none"
       id="rect2994"
       width="32"
       height="32"
       x="0"
       y="0" />
    <path
       d="m 11.339891,20.109284 6.823191,-2.168571 2.175512,-6.801429 -6.823193,2.168574 z m 3.757699,-5.322856 2.175511,-0.69 -0.692208,2.168571 -2.175511,0.690001 z"
       id="path2-2-3-7"
       style="fill:#000000;fill-opacity:1;stroke-width:0.987293" />
    <path
       d="M 16.032,5.9999997 C 10.5144,5.9999997 6,10.5 6,16 c 0,5.499999 4.5144,10 10.032,10 5.517599,0 10.032,-4.500001 10.032,-10 0,-5.5 -4.514401,-10.0000003 -10.032,-10.0000003 z m 0,18.3924183 C 11.662939,24.342535 7.6372,21.476714 7.6127215,16 7.5900205,10.919878 11.61792,7.6075957 16.032,7.6075957 c 4.41408,0 8.497233,3.5698263 8.419255,8.3924043 -0.08258,5.10694 -4.005466,8.442809 -8.419255,8.392418 z"
       id="path4-3-9-6-5"
       style="fill:#000000;fill-opacity:1;stroke-width:1.00161"
       sodipodi:nodetypes="ssssssssss" />
  </g>
</svg>
