<?xml version="1.0" encoding="UTF-8" standalone="no"?>
<svg
   xmlns:dc="http://purl.org/dc/elements/1.1/"
   xmlns:cc="http://creativecommons.org/ns#"
   xmlns:rdf="http://www.w3.org/1999/02/22-rdf-syntax-ns#"
   xmlns:svg="http://www.w3.org/2000/svg"
   xmlns="http://www.w3.org/2000/svg"
   xmlns:xlink="http://www.w3.org/1999/xlink"
   xmlns:sodipodi="http://sodipodi.sourceforge.net/DTD/sodipodi-0.dtd"
   xmlns:inkscape="http://www.inkscape.org/namespaces/inkscape"
   width="32"
   height="32"
   version="1.1"
   id="svg12"
   sodipodi:docname="compass.svg"
   inkscape:version="1.0.2 (e86c870879, 2021-01-15)">
  <metadata
     id="metadata18">
    <rdf:RDF>
      <cc:Work
         rdf:about="">
        <dc:format>image/svg+xml</dc:format>
        <dc:type
           rdf:resource="http://purl.org/dc/dcmitype/StillImage" />
      </cc:Work>
    </rdf:RDF>
  </metadata>
  <defs
     id="defs16">
    <radialGradient
       inkscape:collect="always"
       xlink:href="#linearGradient960"
       id="radialGradient962"
       cx="16"
       cy="16"
       fx="16"
       fy="16"
       r="11"
       gradientUnits="userSpaceOnUse"
       gradientTransform="translate(27.000026,4.9999877)" />
    <linearGradient
       inkscape:collect="always"
       id="linearGradient960">
      <stop
         style="stop-color:#008080;stop-opacity:1;"
         offset="0"
         id="stop956" />
      <stop
         style="stop-color:#008080;stop-opacity:0;"
         offset="1"
         id="stop958" />
    </linearGradient>
    <radialGradient
       inkscape:collect="always"
       xlink:href="#linearGradient960"
       id="radialGradient962-7"
       cx="16"
       cy="16"
       fx="16"
       fy="16"
       r="11"
       gradientUnits="userSpaceOnUse"
       gradientTransform="matrix(1.4545465,0,0,1.4545465,-7.272707,-7.2727413)" />
  </defs>
  <sodipodi:namedview
     pagecolor="#ffffff"
     bordercolor="#666666"
     borderopacity="1"
     objecttolerance="10"
     gridtolerance="10"
     guidetolerance="10"
     inkscape:pageopacity="0"
     inkscape:pageshadow="2"
     inkscape:window-width="1920"
     inkscape:window-height="1007"
     id="namedview14"
     showgrid="false"
     inkscape:zoom="9.8125003"
     inkscape:cx="30.081662"
     inkscape:cy="17.694269"
     inkscape:window-x="0"
     inkscape:window-y="0"
     inkscape:window-maximized="1"
     inkscape:current-layer="svg12"
     inkscape:document-rotation="0"
     inkscape:lockguides="false">
    <inkscape:grid
       type="xygrid"
       id="grid880"
       originx="32.000012"
       originy="9.9999997" />
  </sodipodi:namedview>
  <g
     id="22-22-compass">
    <path
       style="fill:url(#radialGradient962);fill-opacity:1;stroke-width:1.00005;enable-background:new"
       d="m 43.000013,9.9999997 c -6.069423,0 -11.000001,4.9305813 -11.000001,10.9999993 0,6.069422 4.930578,11.000002 11.000001,11.000001 6.069417,0 11.000001,-4.930579 10.999999,-11.000001 0,-6.069418 -4.930582,-10.9999993 -10.999999,-10.9999993 z"
       id="path24"
       inkscape:connector-curvature="0" />
    <path
       d="m 39.726022,23.876498 4.760999,-1.518 1.518,-4.760999 -4.761,1.517999 z m 2.621999,-3.726 1.518,-0.483 -0.483,1.518 -1.518,0.483 z"
       id="path2"
       style="fill:#000000;stroke-width:0.69;fill-opacity:1" />
    <path
       d="m 43.000022,13.999999 c -3.85,0 -7,3.15 -7,7 0,3.849998 3.15,6.999998 7,6.999998 3.849998,0 6.999998,-3.15 6.999998,-6.999998 0,-3.85 -3.15,-7 -6.999998,-7 z m 0,12.599998 c -3.080001,0 -5.6,-2.52 -5.6,-5.599998 0,-3.080001 2.519999,-5.6 5.6,-5.6 3.079998,0 5.599998,2.519999 5.599998,5.6 0,3.079998 -2.52,5.599998 -5.599998,5.599998 z"
       id="path4-3"
       style="fill:#000000;fill-opacity:1;stroke-width:0.700005" />
  </g>
  <g
     id="compass">
    <path
       style="fill:url(#radialGradient962-7);fill-opacity:1;stroke-width:1.45465;enable-background:new"
       d="M 16.000001,0 C 7.17175,0 0,7.171753 0,15.999999 0,24.828247 7.17175,32.000001 16.000001,32 24.828247,32 32.000002,24.828247 32,15.999999 32,7.171753 24.828247,0 16.000001,0 Z"
       id="path24-5"
       inkscape:connector-curvature="0" />
    <path
       d="m 11.23783,20.183992 6.92509,-2.208 2.208,-6.92509 -6.92509,2.208 z m 3.813818,-5.419636 2.208,-0.702545 -0.702546,2.207999 -2.207999,0.702546 z"
       id="path2-2"
       style="fill:#000000;stroke-width:1.00364;fill-opacity:1" />
    <path
       d="m 16.000012,5.8181747 c -5.6,0 -10.181818,4.5818183 -10.181818,10.1818183 0,5.599998 4.581818,10.181817 10.181818,10.181817 5.599998,0 10.181817,-4.581819 10.181817,-10.181817 0,-5.6 -4.581819,-10.1818183 -10.181817,-10.1818183 z m 0,18.3272713 c -4.48,0 -8.1454545,-3.665455 -8.1454545,-8.145453 0,-4.480001 3.6654545,-8.1454549 8.1454545,-8.1454549 4.479999,0 8.145453,3.6654539 8.145453,8.1454549 0,4.479998 -3.665454,8.145453 -8.145453,8.145453 z"
       id="path4-3-9"
       style="fill:#000000;fill-opacity:1;stroke-width:1.01819" />
  </g>
</svg>
