<?xml version="1.0" encoding="UTF-8" standalone="no"?>
<svg
   width="32"
   height="32"
   version="1.1"
   id="svg12"
   sodipodi:docname="device.svg"
   inkscape:version="1.1.2 (0a00cf5339, 2022-02-04)"
   xmlns:inkscape="http://www.inkscape.org/namespaces/inkscape"
   xmlns:sodipodi="http://sodipodi.sourceforge.net/DTD/sodipodi-0.dtd"
   xmlns="http://www.w3.org/2000/svg"
   xmlns:svg="http://www.w3.org/2000/svg"
   xmlns:rdf="http://www.w3.org/1999/02/22-rdf-syntax-ns#"
   xmlns:cc="http://creativecommons.org/ns#"
   xmlns:dc="http://purl.org/dc/elements/1.1/">
  <g
     id="22-22-device-notifier"
     transform="translate(32,9.999999)">
    <rect
       style="opacity:0.00100002"
       width="22"
       height="22"
       x="0"
       y="4.6325681e-08"
       id="rect2" />
    <path
       style="color:#d3dae3;fill:#00b8b8;fill-opacity:1;fill-rule:evenodd;stroke-width:0.353605;image-rendering:optimizeQuality;shape-rendering:geometricPrecision;text-rendering:geometricPrecision"
       d="m 10.954938,10.103332 -1.066346,0.185783 v 3.672801 l 1.060821,-0.136746 -0.0055,-1.655456 1.251432,1.832257 1.229331,-0.176801 -1.41442,-1.896488 1.419254,-1.591222 -1.244524,-0.229297 -1.241073,1.591228 z m -2.242493,0.937881 c -0.01026,6.64e-4 -0.01989,0.0053 -0.02764,0.0131 l -0.366036,0.370182 c -0.01591,0.016 -0.01856,0.04097 -0.0061,0.06009 l 0.442008,0.678895 c -0.08338,0.147976 -0.146384,0.310226 -0.187166,0.479992 L 7.80433,12.830639 c -0.02115,0.0052 -0.03733,0.02433 -0.03733,0.04629 v 0.241032 0.241032 c 0,0.02195 0.01614,0.04109 0.03733,0.0463 l 0.763147,0.18716 c 0.04077,0.169768 0.103779,0.332019 0.187165,0.479994 l -0.442007,0.678891 c -0.01235,0.01912 -0.0097,0.04409 0.0061,0.06009 l 0.366038,0.370182 c 0.01541,0.01561 0.0394,0.01685 0.05798,0.0055 L 9.43546,14.762372 c 0.135899,0.07917 0.348482,0.14287 0.503474,0.18509 l 0.162303,0.783866 c 0.0048,0.02262 0.02251,0.03867 0.04487,0.03867 h 0.272799 0.272802 c 0.02244,0 0.04037,-0.01601 0.04487,-0.03867 l 0.162302,-0.783866 c 0.154993,-0.04223 0.367573,-0.105922 0.503474,-0.185093 l 0.69271,0.42474 c 0.01865,0.0113 0.04255,0.01006 0.05797,-0.0055 l 0.366042,-0.370183 c 0.01591,-0.01601 0.01857,-0.04097 0.0062,-0.06009 l -0.368108,-0.565627 -0.04559,0.0067 -0.2583,-0.37847 c -0.26381,0.553025 -0.821723,0.905449 -1.434448,0.906113 -0.878809,0 -1.591225,-0.712413 -1.591225,-1.591222 6.41e-4,-0.604005 0.342945,-1.155648 0.884011,-1.424093 v -0.347359 c -0.100861,0.03361 -0.199965,0.07157 -0.276252,0.11603 L 8.742696,11.048691 c -0.0093,-0.0057 -0.02011,-0.0084 -0.03041,-0.0075 z"
       class="ColorScheme-Text"
       id="path10-3-36" />
    <path
       d="M 8.032967,3 C 7.476019,3 7.03297,3.530098 7.033,4.003856 v 1.996193 h 0.999997 l -3e-5,-1.000056 c 0,-0.999997 0,-0.999997 0.999996,-0.999997 l 3.008119,5e-5 c 0.991867,-5e-5 0.991867,-5e-5 0.991867,0.999947 l 3e-5,1.000056 h 0.999996 l -3e-5,-2.000053 C 14.032945,3.397669 13.614817,3 13.046849,3.00005 Z M 9.032993,5.000053 V 6.000049 H 10.03299 V 5.000053 Z m 1.999993,0 v 0.999996 h 0.999996 V 5.000053 Z"
       style="solid-color:#d5c289;fill:#d3dae3;fill-opacity:1;fill-rule:evenodd;stroke-width:0.999994"
       id="path4-7"
       sodipodi:nodetypes="ccccccccccccccccccccccc" />
    <path
       d="M 14.98,6.999998 H 6.02 c -0.5612249,0 -1.02,0.45 -1.02,1 v 10 C 5,18.55 5.4587751,19 6.02,19 h 8.96 C 15.541227,19 16,18.55 16,17.999998 v -10 c 0,-0.55 -0.458773,-1 -1.02,-1 z m 0.0098,10.600003 c 0,0.274998 -0.229607,0.5 -0.510208,0.5 H 6.5204188 c -0.280624,0 -0.5102079,-0.225004 -0.5102079,-0.500002 V 8.400001 c 0,-0.275 0.2295839,-0.6 0.5102079,-0.6 h 7.9591752 c 0.280601,0 0.510208,0.325 0.510208,0.6 z"
       id="path2-5"
       style="fill:#d3dae3;fill-opacity:1;stroke-width:0.252537"
       sodipodi:nodetypes="ssssssssssssssssss" />
  </g>
  <metadata
     id="metadata18">
    <rdf:RDF>
      <cc:Work
         rdf:about="">
        <dc:format>image/svg+xml</dc:format>
        <dc:type
           rdf:resource="http://purl.org/dc/dcmitype/StillImage" />
      </cc:Work>
    </rdf:RDF>
  </metadata>
  <defs
     id="defs16" />
  <sodipodi:namedview
     pagecolor="#ffffff"
     bordercolor="#000000"
     borderopacity="1"
     objecttolerance="10"
     gridtolerance="10"
     guidetolerance="10"
     inkscape:pageopacity="0"
     inkscape:pageshadow="2"
     inkscape:window-width="1920"
     inkscape:window-height="1003"
     id="namedview14"
     showgrid="false"
     inkscape:zoom="9.8125005"
     inkscape:cx="14.318471"
     inkscape:cy="21.605094"
     inkscape:window-x="0"
     inkscape:window-y="0"
     inkscape:window-maximized="1"
     inkscape:current-layer="svg12"
     inkscape:document-rotation="0"
     inkscape:lockguides="true"
     inkscape:showpageshadow="false"
     inkscape:pagecheckerboard="0">
    <inkscape:grid
       type="xygrid"
       id="grid865"
       originx="0"
       originy="-1.5367432e-07" />
    <inkscape:grid
       type="xygrid"
       id="grid2227" />
  </sodipodi:namedview>
  <g
     id="device-notifier">
    <rect
       style="opacity:0.00100002"
       width="32"
       height="32"
       x="0"
       y="-4.6325681e-08"
       id="rect7" />
    <path
       style="color:#d3dae3;fill:#00b8b8;fill-opacity:1;fill-rule:evenodd;stroke-width:0.530408;image-rendering:optimizeQuality;shape-rendering:geometricPrecision;text-rendering:geometricPrecision"
       d="m 16.53191,14.655 -1.599518,0.278674 v 5.509201 l 1.591231,-0.205119 -0.0083,-2.483183 1.877148,2.748384 1.843997,-0.265201 -2.12163,-2.844731 2.128881,-2.386833 -1.866786,-0.343945 -1.86161,2.386842 z m -3.363739,1.406821 c -0.01539,9.97e-4 -0.02984,0.008 -0.04146,0.01965 l -0.549054,0.555274 c -0.02387,0.024 -0.02784,0.06145 -0.0092,0.09014 l 0.663011,1.018342 c -0.125077,0.221964 -0.219576,0.465339 -0.280748,0.719988 L 11.806,18.74596 c -0.03172,0.0078 -0.056,0.0365 -0.056,0.06944 v 0.361548 0.361548 c 0,0.03292 0.02421,0.06163 0.056,0.06945 l 1.144719,0.280739 c 0.06115,0.254652 0.155669,0.498029 0.280748,0.719991 l -0.66301,1.018337 c -0.01853,0.02868 -0.01453,0.06613 0.0092,0.09013 l 0.549058,0.555273 c 0.02311,0.02341 0.0591,0.02528 0.08697,0.0083 l 1.03906,-0.637107 c 0.203848,0.118758 0.522723,0.214305 0.755211,0.277635 l 0.243454,1.175798 c 0.0072,0.03393 0.03376,0.058 0.0673,0.058 h 0.409199 0.409203 c 0.03366,0 0.06055,-0.02402 0.06731,-0.058 l 0.243452,-1.175798 c 0.23249,-0.06335 0.55136,-0.158884 0.755212,-0.27764 l 1.039064,0.63711 c 0.02797,0.01695 0.06383,0.01509 0.08696,-0.0083 l 0.549063,-0.555274 c 0.02387,-0.02401 0.02785,-0.06145 0.0093,-0.09013 l -0.552163,-0.848441 -0.06838,0.01011 -0.38745,-0.567705 c -0.395715,0.829537 -1.232584,1.358173 -2.151672,1.35917 -1.318213,0 -2.386837,-1.06862 -2.386837,-2.386833 9.62e-4,-0.906007 0.514418,-1.733472 1.326017,-2.136139 v -0.521038 c -0.151291,0.05041 -0.299948,0.107355 -0.414378,0.174045 l -1.039002,-0.637076 c -0.01401,-0.0085 -0.03017,-0.01267 -0.04562,-0.0113 z"
       class="ColorScheme-Text"
       id="path10-3" />
    <path
       d="M 12.42853,4 C 11.632886,4 10.999955,4.795147 11,5.5057844 v 2.9942888 h 1 V 6.9999888 C 12,5.4999944 12.12843,5 13.557,5 h 4.997 C 19.970956,4.999925 20,5.4999944 20,6.9999888 v 1.5000844 h 1 l -4.5e-5,-3.0000788 C 20.999955,4.5965028 20.40263,4 19.591245,4.000075 Z m 1.428615,3.0000788 v 1.4999944 h 1.428571 V 7.0000788 Z m 2.85714,0 v 1.4999944 h 1.42857 V 7.0000788 Z"
       style="solid-color:#d5c289;fill:#d3dae3;fill-opacity:1;fill-rule:evenodd;stroke-width:1.46385"
       id="path4"
       sodipodi:nodetypes="ccccccccccccccccccccccc" />
    <path
       d="M 22.367351,10 H 9.63267 C 8.7347105,10 8,10.675 8,11.499999 V 26.499998 C 8,27.325 8.7347105,28 9.63267,28 H 22.367351 C 23.265312,28 24,27.325 24,26.499998 V 11.499999 C 24,10.675 23.265312,10 22.367351,10 Z M 23,26.3 c 0,0.412496 -0.183687,0.75 -0.632649,0.75 H 9.63267 C 9.1836715,27.05 9,26.712496 9,26.3 V 11.7 C 9,11.287501 9.1836715,11.05 9.63267,11.05 H 22.367351 C 22.816313,11.05 23,11.287501 23,11.7 Z"
       id="path2"
       style="fill:#d3dae3;fill-opacity:1;stroke-width:0.391229"
       sodipodi:nodetypes="ssssssssssssssssss" />
  </g>
</svg>
