<?xml version="1.0" encoding="UTF-8" standalone="no"?>
<svg
   id="svg7384"
   width="22"
   height="22"
   enable-background="new"
   inkscape:version="1.1.2 (0a00cf5339, 2022-02-04)"
   sodipodi:docname="disk.svg"
   version="1.1"
   xmlns:inkscape="http://www.inkscape.org/namespaces/inkscape"
   xmlns:sodipodi="http://sodipodi.sourceforge.net/DTD/sodipodi-0.dtd"
   xmlns="http://www.w3.org/2000/svg"
   xmlns:svg="http://www.w3.org/2000/svg"
   xmlns:rdf="http://www.w3.org/1999/02/22-rdf-syntax-ns#"
   xmlns:cc="http://creativecommons.org/ns#"
   xmlns:dc="http://purl.org/dc/elements/1.1/">
  <g
     id="disk-quota-critical"
     transform="translate(86.056461,0.07996173)">
    <path
       id="path19-6-0-9"
       d="M 0,0 H 21.999999 V 22 H 0 Z"
       opacity="0"
       inkscape:connector-curvature="0" />
    <path
       d="M 15.77551,3 H 6.22449 C 5.551021,3 5,3.6 5,4.333333 V 17.666664 C 5,18.4 5.551021,19 6.22449,19 h 9.55102 C 16.44898,19 17,18.4 17,17.666664 V 4.333333 C 17,3.6 16.44898,3 15.77551,3 Z M 16,17.467 C 16,17.833665 15.81273,18 15.476,18 H 6.624 C 6.287265,18 6,17.833665 6,17.467 V 4.533 C 6,4.166333 6.287265,4.000019 6.624,4 l 8.852,-5e-4 C 15.81273,3.999481 16,4.165333 16,4.532 Z"
       id="path2-2"
       style="fill:#d3dae3;fill-opacity:1;stroke-width:0.319439"
       sodipodi:nodetypes="ssssssssssssssssss" />
    <path
       d="m 11.05,7 c -1.93919,0 -3.5,1.560811 -3.5,3.5 0,1.939179 1.56081,3.5 3.5,3.5 1.93918,0 3.5,-1.560821 3.5,-3.5 0,-1.939189 -1.56082,-3.5 -3.5,-3.5 z m 0,6.216 c -0.71066,0 -1.22855,-0.185758 -1.67922,-0.527345 C 8.756672,12.223191 8.334,11.468393 8.334,10.5 8.334,9.608234 8.700291,8.98516 9.22615,8.514798 9.69039,8.09955 10.26272,7.861778 11.05,7.861778 c 0.71572,0 1.17324,0.206564 1.62503,0.552813 0.60809,0.466037 1.01319,1.12208 1.01319,2.085409 0,0.745144 -0.2878,1.369778 -0.672,1.831401 C 12.5469,12.895317 11.97326,13.216 11.05,13.216 Z"
       id="path4-7"
       style="fill:#ff0066;fill-opacity:1;stroke-width:0.236495"
       sodipodi:nodetypes="ssssssssssssss" />
    <path
       d="m 11,9.45 c -0.65662,0 -1.175,0.518382 -1.175,1.175 0,0.656618 0.51838,1.175 1.175,1.175 0.65662,0 1.175,-0.518382 1.175,-1.175 C 12.175,9.968382 11.65662,9.45 11,9.45 Z m 0.016,1.175 z"
       id="path6-0"
       style="fill:#ff0066;fill-opacity:1;stroke-width:0.345588"
       sodipodi:nodetypes="ssssscccc" />
    <path
       d="M 7.434783,16 H 14.56521 C 14.82609,16 15,15.8 15,15.5 15,15.2 14.82609,15 14.56521,15 H 7.434783 C 7.173913,15 7,15.2 7,15.5 7,15.8 7.173913,16 7.434783,16 Z"
       id="path10-9"
       style="fill:#ff0066;fill-opacity:1;stroke-width:0.466252" />
  </g>
  <metadata
     id="metadata32">
    <rdf:RDF>
      <cc:Work
         rdf:about="">
        <dc:format>image/svg+xml</dc:format>
        <dc:type
           rdf:resource="http://purl.org/dc/dcmitype/StillImage" />
      </cc:Work>
    </rdf:RDF>
  </metadata>
  <sodipodi:namedview
     id="namedview10"
     bordercolor="#000000"
     borderopacity="1"
     gridtolerance="10"
     guidetolerance="10"
     inkscape:bbox-nodes="true"
     inkscape:current-layer="svg7384"
     inkscape:cx="53.916894"
     inkscape:cy="14.318913"
     inkscape:pageopacity="0"
     inkscape:pageshadow="2"
     inkscape:snap-bbox="true"
     inkscape:snap-bbox-edge-midpoints="true"
     inkscape:window-height="1003"
     inkscape:window-maximized="1"
     inkscape:window-width="1920"
     inkscape:window-x="0"
     inkscape:window-y="0"
     inkscape:zoom="5.656854"
     objecttolerance="10"
     pagecolor="#ffffff"
     showgrid="false"
     inkscape:document-rotation="0"
     inkscape:lockguides="false"
     inkscape:pagecheckerboard="0"
     inkscape:showpageshadow="false">
    <inkscape:grid
       type="xygrid"
       id="grid3280"
       originx="32.063"
       originy="0.031" />
  </sodipodi:namedview>
  <defs
     id="defs7386">
    <style
       id="current-color-scheme"
       type="text/css">.ColorScheme-Text { color:#dedede; } .ColorScheme-Highlight { color:#5294e2; } .ColorScheme-ButtonBackground { color:#dedede; }</style>
  </defs>
  <g
     id="g23"
     fill="#dedede" />
  <g
     id="disk-quota"
     transform="translate(86.056461,0.07996173)">
    <path
       id="path19"
       d="m -86.056461,-0.07996173 h 22 V 21.920038 h -22 z"
       opacity="0"
       inkscape:connector-curvature="0" />
    <path
       d="m -70.280952,2.9200383 h -9.551019 c -0.673469,0 -1.22449,0.6 -1.22449,1.3333329 V 17.586702 c 0,0.733336 0.551021,1.333336 1.22449,1.333336 h 9.551019 c 0.673469,0 1.224491,-0.6 1.224491,-1.333336 V 4.2533712 c 0,-0.7333329 -0.551022,-1.3333329 -1.224491,-1.3333329 z m 0.224491,14.4669997 c 0,0.366665 -0.187266,0.533 -0.524,0.533 h -8.852 c -0.336735,0 -0.624,-0.166335 -0.624,-0.533 V 4.4530383 c 0,-0.3666665 0.287265,-0.532981 0.624,-0.533 l 8.852,-5e-4 c 0.336734,-1.9e-5 0.524,0.1658335 0.524,0.5325 z"
       id="path2"
       style="fill:#d3dae3;fill-opacity:1;stroke-width:0.319439"
       sodipodi:nodetypes="ssssssssssssssssss" />
    <path
       d="m -75.006461,6.9200383 c -1.939189,0 -3.5,1.5608107 -3.5,3.4999997 0,1.939179 1.560811,3.5 3.5,3.5 1.939179,0 3.5,-1.560821 3.5,-3.5 0,-1.939189 -1.560821,-3.4999997 -3.5,-3.4999997 z m 0,6.2159997 c -0.710664,0 -1.228554,-0.185758 -1.679222,-0.527345 -0.614106,-0.465464 -1.036778,-1.220262 -1.036778,-2.188655 0,-0.8917657 0.366291,-1.5148399 0.892147,-1.9852014 0.464243,-0.4152486 1.036571,-0.6530203 1.823853,-0.6530203 0.715719,0 1.173235,0.2065638 1.625026,0.5528135 0.608096,0.4660365 1.013194,1.12208 1.013194,2.0854082 0,0.745144 -0.287797,1.369778 -0.672,1.831401 -0.46932,0.563916 -1.042955,0.884599 -1.96622,0.884599 z"
       id="path4"
       style="fill:#d3dae3;fill-opacity:1;stroke-width:0.236495"
       sodipodi:nodetypes="ssssssssssssss" />
    <path
       d="m -75.056461,9.3700383 c -0.656618,0 -1.175,0.518382 -1.175,1.1749997 0,0.656618 0.518382,1.175 1.175,1.175 0.656618,0 1.175,-0.518382 1.175,-1.175 0,-0.6566177 -0.518382,-1.1749997 -1.175,-1.1749997 z m 0.016,1.1749997 z"
       id="path6"
       style="fill:#d3dae3;fill-opacity:1;stroke-width:0.345588"
       sodipodi:nodetypes="ssssscccc" />
    <path
       d="m -78.621678,15.920038 h 7.130432 c 0.260871,0 0.434785,-0.2 0.434785,-0.5 0,-0.3 -0.173914,-0.5 -0.434785,-0.5 h -7.130432 c -0.26087,0 -0.434783,0.2 -0.434783,0.5 0,0.3 0.173913,0.5 0.434783,0.5 z"
       id="path10"
       style="fill:#d3dae3;fill-opacity:1;stroke-width:0.466252" />
  </g>
  <g
     id="disk-quota-low"
     transform="translate(32.063,0.031)">
    <path
       id="path19-6"
       d="M 0,0 H 22 V 22 H 0 Z"
       opacity="0"
       inkscape:connector-curvature="0" />
    <path
       d="M 15.775509,3 H 6.22449 C 5.551021,3 5,3.6 5,4.333333 V 17.666664 C 5,18.4 5.551021,19 6.22449,19 h 9.551019 C 16.448978,19 17,18.4 17,17.666664 V 4.333333 C 17,3.6 16.448978,3 15.775509,3 Z M 16,17.467 C 16,17.833665 15.812734,18 15.476,18 H 6.624 C 6.287265,18 6,17.833665 6,17.467 V 4.533 C 6,4.166333 6.287265,4.000019 6.624,4 l 8.852,-5e-4 C 15.812734,3.999481 16,4.165334 16,4.532 Z"
       id="path2-3"
       style="fill:#d3dae3;fill-opacity:1;stroke-width:0.319439"
       sodipodi:nodetypes="ssssssssssssssssss" />
    <path
       d="m 11.05,7 c -1.939189,0 -3.5,1.560811 -3.5,3.5 0,1.939179 1.560811,3.5 3.5,3.5 1.939179,0 3.5,-1.560821 3.5,-3.5 0,-1.939189 -1.560821,-3.5 -3.5,-3.5 z m 0,6.216 c -0.710664,0 -1.228554,-0.185758 -1.679222,-0.527345 C 8.756672,12.223191 8.334,11.468393 8.334,10.5 8.334,9.608234 8.700291,8.98516 9.226147,8.514798 9.69039,8.09955 10.262718,7.861778 11.05,7.861778 c 0.715719,0 1.173235,0.206564 1.625026,0.552813 0.608096,0.466037 1.013194,1.12208 1.013194,2.085409 0,0.745144 -0.287797,1.369778 -0.672,1.831401 C 12.5469,12.895317 11.973265,13.216 11.05,13.216 Z"
       id="path4-6"
       style="fill:#009696;fill-opacity:1;stroke-width:0.236495"
       sodipodi:nodetypes="ssssssssssssss" />
    <path
       d="m 11,9.45 c -0.656618,0 -1.175,0.518382 -1.175,1.175 0,0.656618 0.518382,1.175 1.175,1.175 0.656618,0 1.175,-0.518382 1.175,-1.175 C 12.175,9.968382 11.656618,9.45 11,9.45 Z m 0.016,1.175 z"
       id="path6-7"
       style="fill:#009696;fill-opacity:1;stroke-width:0.345588"
       sodipodi:nodetypes="ssssscccc" />
    <path
       d="m 7.434783,16 h 7.130432 C 14.826086,16 15,15.8 15,15.5 15,15.2 14.826086,15 14.565215,15 H 7.434783 C 7.173913,15 7,15.2 7,15.5 7,15.8 7.173913,16 7.434783,16 Z"
       id="path10-5"
       style="fill:#009696;fill-opacity:1;stroke-width:0.466252" />
  </g>
  <g
     id="disk-quota-high"
     transform="translate(59.094317,0.0324236)">
    <path
       id="path19-6-0"
       d="M 0,0 H 22 V 22 H 0 Z"
       opacity="0"
       inkscape:connector-curvature="0" />
    <path
       d="M 15.775509,3 H 6.22449 C 5.551021,3 5,3.6 5,4.333333 V 17.666664 C 5,18.4 5.551021,19 6.22449,19 h 9.551019 C 16.448978,19 17,18.4 17,17.666664 V 4.333333 C 17,3.6 16.448978,3 15.775509,3 Z M 16,17.467 C 16,17.833665 15.812734,18 15.476,18 H 6.624 C 6.287265,18 6,17.833665 6,17.467 V 4.533 C 6,4.166333 6.287265,4.000019 6.624,4 l 8.852,-5e-4 C 15.812734,3.999481 16,4.165334 16,4.532 Z"
       id="path2-35"
       style="fill:#d3dae3;fill-opacity:1;stroke-width:0.319439"
       sodipodi:nodetypes="ssssssssssssssssss" />
    <path
       d="m 11.05,7 c -1.939189,0 -3.5,1.560811 -3.5,3.5 0,1.939179 1.560811,3.5 3.5,3.5 1.939179,0 3.5,-1.560821 3.5,-3.5 0,-1.939189 -1.560821,-3.5 -3.5,-3.5 z m 0,6.216 c -0.710664,0 -1.228553,-0.185758 -1.679222,-0.527345 C 8.756672,12.223191 8.334,11.468393 8.334,10.5 8.334,9.608234 8.700291,8.98516 9.226147,8.514798 9.690389,8.09955 10.262718,7.861778 11.05,7.861778 c 0.715719,0 1.173235,0.206564 1.625026,0.552813 0.608096,0.466037 1.013194,1.12208 1.013194,2.085409 0,0.745144 -0.287797,1.369778 -0.672,1.831401 C 12.5469,12.895317 11.973265,13.216 11.05,13.216 Z"
       id="path4-62"
       style="fill:#ff6600;fill-opacity:1;stroke-width:0.236495"
       sodipodi:nodetypes="ssssssssssssss" />
    <path
       d="m 11,9.45 c -0.656618,0 -1.175,0.518382 -1.175,1.175 0,0.656618 0.518382,1.175 1.175,1.175 0.656618,0 1.175,-0.518382 1.175,-1.175 C 12.175,9.968382 11.656618,9.45 11,9.45 Z m 0.016,1.175 z"
       id="path6-9"
       style="fill:#ff6600;fill-opacity:1;stroke-width:0.345588"
       sodipodi:nodetypes="ssssscccc" />
    <path
       d="m 7.434783,16 h 7.130432 C 14.826086,16 15,15.8 15,15.5 15,15.2 14.826086,15 14.565215,15 H 7.434783 C 7.173913,15 7,15.2 7,15.5 7,15.8 7.173913,16 7.434783,16 Z"
       id="path10-1"
       style="fill:#ff6600;fill-opacity:1;stroke-width:0.466252" />
  </g>
</svg>
