<?xml version="1.0" encoding="UTF-8" standalone="no"?>
<svg
   width="32"
   height="32"
   version="1.1"
   id="svg12"
   sodipodi:docname="drive.svg"
   inkscape:version="1.1.1 (3bf5ae0d25, 2021-09-20)"
   xmlns:inkscape="http://www.inkscape.org/namespaces/inkscape"
   xmlns:sodipodi="http://sodipodi.sourceforge.net/DTD/sodipodi-0.dtd"
   xmlns="http://www.w3.org/2000/svg"
   xmlns:svg="http://www.w3.org/2000/svg"
   xmlns:rdf="http://www.w3.org/1999/02/22-rdf-syntax-ns#"
   xmlns:cc="http://creativecommons.org/ns#"
   xmlns:dc="http://purl.org/dc/elements/1.1/">
  <metadata
     id="metadata18">
    <rdf:RDF>
      <cc:Work
         rdf:about="">
        <dc:format>image/svg+xml</dc:format>
        <dc:type
           rdf:resource="http://purl.org/dc/dcmitype/StillImage" />
      </cc:Work>
    </rdf:RDF>
  </metadata>
  <defs
     id="defs16" />
  <sodipodi:namedview
     pagecolor="#ffffff"
     bordercolor="#000000"
     borderopacity="1"
     objecttolerance="10"
     gridtolerance="10"
     guidetolerance="10"
     inkscape:pageopacity="0"
     inkscape:pageshadow="2"
     inkscape:window-width="1920"
     inkscape:window-height="1007"
     id="namedview14"
     showgrid="false"
     inkscape:zoom="6.9384853"
     inkscape:cx="37.976588"
     inkscape:cy="8.2150495"
     inkscape:window-x="0"
     inkscape:window-y="0"
     inkscape:window-maximized="1"
     inkscape:current-layer="svg12"
     inkscape:document-rotation="0"
     inkscape:lockguides="true"
     inkscape:pagecheckerboard="0"
     inkscape:showpageshadow="false"
     showguides="false">
    <inkscape:grid
       type="xygrid"
       id="grid875"
       originx="0"
       originy="-4.6325683e-08" />
  </sodipodi:namedview>
  <g
     id="drive-harddisk">
    <rect
       style="opacity:0.00100002"
       width="32"
       height="32"
       x="0"
       y="0"
       id="rect7" />
    <path
       d="m 15.943226,12.699419 a 2.9333334,2.9333334 0 1 0 2.933341,2.933334 2.9333334,2.9333334 0 0 0 -2.933341,-2.933334 z m 0,4.4 a 1.4666666,1.4666666 0 1 1 1.466675,-1.466666 1.4666666,1.4666666 0 0 1 -1.466675,1.466666 z"
       id="path6"
       style="fill:#d3dae3;fill-opacity:1;stroke-width:0.733334" />
    <path
       d="M 22.44922,5.074 H 9.541815 C 8.631676,5.074 7.887,5.899 7.887,6.9073329 V 25.240659 C 7.887,26.249 8.631676,27.074 9.541815,27.074 H 22.44922 c 0.910139,0 1.65479,-0.825 1.65479,-1.833341 V 6.9073329 C 24.10401,5.899 23.359359,5.074 22.44922,5.074 Z m 0.827403,20.166659 c 0,0.504172 -0.372344,0.916672 -0.827403,0.916672 H 9.541815 c -0.45509,0 -0.8274063,-0.4125 -0.8274063,-0.916672 V 6.9073329 c 0,-0.5041665 0.3723163,-0.9166664 0.8274063,-0.9166664 H 22.44922 c 0.455059,0 0.827403,0.4124999 0.827403,0.9166664 z"
       id="path2"
       style="fill:#d3dae3;fill-opacity:1;stroke-width:0.435448" />
    <path
       d="m 15.989691,19.766304 c -2.344664,0 -4.252124,-1.907451 -4.252124,-4.252127 0,-0.844013 0.250157,-1.658887 0.713975,-2.352999 h -0.393678 c -0.176795,0 -0.320297,-0.143508 -0.320297,-0.320313 V 8.2799413 c 0,-0.1768003 0.143502,-0.3203 0.320297,-0.3203 h 7.863005 c 0.17714,0 0.320313,0.1434997 0.320313,0.3203 v 4.5605967 c 0,0.17681 -0.143173,0.320314 -0.320313,0.320314 h -0.393661 c 0.463817,0.694438 0.713974,1.509312 0.713974,2.353011 0,2.34499 -1.90713,4.252441 -4.251491,4.252441 z m -3.611512,-7.246081 h 0.734166 c 0.127474,0 0.242777,0.07559 0.293717,0.192523 0.05088,0.116896 0.02753,0.252716 -0.05928,0.346242 -0.624614,0.671704 -0.968624,1.543581 -0.968624,2.455189 0,1.991373 1.620134,3.611512 3.611509,3.611512 1.991058,0 3.610867,-1.620454 3.610867,-3.611512 0,-0.910961 -0.344011,-1.782859 -0.968301,-2.455499 -0.08684,-0.09352 -0.109878,-0.229356 -0.05929,-0.345932 0.05088,-0.116895 0.166553,-0.192523 0.29371,-0.192523 h 0.733838 v -3.91997 h -7.222304 z"
       id="path4"
       style="fill:#d3dae3;fill-opacity:1;stroke-width:0.320306" />
    <path
       d="m 18.586041,23.864653 h -4.921034 c -0.2024,0 -0.366666,-0.164266 -0.366666,-0.366666 0,-0.2024 0.164266,-0.366659 0.366666,-0.366659 h 4.921034 c 0.202766,0 0.366666,0.164259 0.366666,0.366659 0,0.2024 -0.1639,0.366666 -0.366666,0.366666 z"
       id="path6-3"
       style="fill:#d3dae3;fill-opacity:1;stroke-width:0.366666" />
  </g>
  <g
     id="22-22-drive-harddisk"
     transform="translate(32,10.000001)">
    <rect
       style="opacity:0.00100002"
       width="22"
       height="22"
       x="0"
       y="-4.6325681e-08"
       id="rect2" />
    <path
       d="M 11,8.799539 A 1.8666674,1.8666674 0 1 0 12.866652,10.666206 1.8666674,1.8666674 0 0 0 11,8.799539 Z m 0,2.8 A 0.93333304,0.93333304 0 1 1 11.933323,10.666206 0.93333304,0.93333304 0 0 1 11,11.599539 Z"
       id="path6-6"
       style="fill:#d3dae3;fill-opacity:1;stroke-width:0.466674" />
    <path
       d="M 15.140162,3.947 H 6.926355 c -0.579179,0 -1.053053,0.525 -1.053053,1.166667 v 11.666661 c 0,0.641672 0.473874,1.166672 1.053053,1.166672 h 8.213807 c 0.579179,0 1.05305,-0.525 1.05305,-1.166672 V 5.113667 C 16.193212,4.472 15.719341,3.947 15.140162,3.947 Z m 0.526525,12.833328 c 0,0.320837 -0.236926,0.583337 -0.526525,0.583337 H 6.926355 c -0.289585,0 -0.526526,-0.2625 -0.526526,-0.583337 V 5.113667 c 0,-0.320835 0.236941,-0.583335 0.526526,-0.583335 h 8.213807 c 0.289599,0 0.526525,0.2625 0.526525,0.583335 z"
       id="path2-7"
       style="fill:#d3dae3;fill-opacity:1;stroke-width:0.277108" />
    <path
       d="m 11.029572,13.29665 c -1.492083,0 -2.70592,-1.213836 -2.70592,-2.705901 0,-0.537101 0.159194,-1.055656 0.454352,-1.497367 H 8.527492 c -0.112521,0 -0.20384,-0.09133 -0.20384,-0.203833 V 5.987148 c 0,-0.112512 0.09135,-0.203831 0.20384,-0.203831 h 5.003739 c 0.112701,0 0.203833,0.09132 0.203833,0.203831 v 2.902196 c 0,0.112517 -0.09113,0.203837 -0.203833,0.203837 H 13.28071 c 0.295157,0.441912 0.454354,0.960467 0.454354,1.497366 0,1.492267 -1.21365,2.706103 -2.705492,2.706103 z M 8.731332,8.685509 h 0.46718 c 0.08111,0 0.154512,0.0481 0.186912,0.122508 0.03248,0.0744 0.0175,0.160819 -0.03768,0.220341 -0.397479,0.427444 -0.61641,0.982277 -0.61641,1.562391 0,1.267238 1.030995,2.298234 2.298238,2.298234 1.267032,0 2.297821,-1.031199 2.297821,-2.298234 0,-0.579703 -0.218921,-1.134545 -0.616181,-1.562591 -0.05526,-0.05952 -0.06989,-0.14595 -0.03769,-0.220141 0.03248,-0.0744 0.105996,-0.122508 0.186914,-0.122508 h 0.466985 V 6.190983 H 8.731394 Z"
       id="path4-5"
       style="fill:#d3dae3;fill-opacity:1;stroke-width:0.203826" />
    <path
       d="M 12.681783,15.904689 H 9.550209 c -0.1288,0 -0.233326,-0.104532 -0.233326,-0.233332 0,-0.1288 0.104526,-0.233333 0.233326,-0.233333 h 3.131574 c 0.129026,0 0.233326,0.104533 0.233326,0.233333 0,0.1288 -0.1043,0.233332 -0.233326,0.233332 z"
       id="path6-3-3"
       style="fill:#d3dae3;fill-opacity:1;stroke-width:0.233326" />
  </g>
</svg>
