<?xml version="1.0" encoding="UTF-8" standalone="no"?>
<svg
   xmlns:dc="http://purl.org/dc/elements/1.1/"
   xmlns:cc="http://creativecommons.org/ns#"
   xmlns:rdf="http://www.w3.org/1999/02/22-rdf-syntax-ns#"
   xmlns:svg="http://www.w3.org/2000/svg"
   xmlns="http://www.w3.org/2000/svg"
   xmlns:sodipodi="http://sodipodi.sourceforge.net/DTD/sodipodi-0.dtd"
   xmlns:inkscape="http://www.inkscape.org/namespaces/inkscape"
   width="22"
   height="22"
   version="1"
   id="svg12"
   sodipodi:docname="kdeconnect.svg"
   inkscape:version="1.0.1 (3bc2e813f5, 2020-09-07)">
  <metadata
     id="metadata18">
    <rdf:RDF>
      <cc:Work
         rdf:about="">
        <dc:format>image/svg+xml</dc:format>
        <dc:type
           rdf:resource="http://purl.org/dc/dcmitype/StillImage" />
      </cc:Work>
    </rdf:RDF>
  </metadata>
  <defs
     id="defs16" />
  <sodipodi:namedview
     pagecolor="#ffffff"
     bordercolor="#666666"
     borderopacity="1"
     objecttolerance="10"
     gridtolerance="10"
     guidetolerance="10"
     inkscape:pageopacity="0"
     inkscape:pageshadow="2"
     inkscape:window-width="1920"
     inkscape:window-height="1007"
     id="namedview14"
     showgrid="false"
     inkscape:zoom="9.8125"
     inkscape:cx="-13.272416"
     inkscape:cy="7.6243825"
     inkscape:window-x="0"
     inkscape:window-y="0"
     inkscape:window-maximized="1"
     inkscape:current-layer="svg12"
     inkscape:document-rotation="0">
    <inkscape:grid
       type="xygrid"
       id="grid860"
       originx="-32"
       originy="-10" />
  </sodipodi:namedview>
  <g
     id="kdeconnect"
     transform="translate(-32,-10)">
    <rect
       style="opacity:0.00100002"
       width="32"
       height="32"
       x="0"
       y="0"
       id="rect7" />
    <path
       sodipodi:nodetypes="ssssssssssssssccccc"
       style="color:#7b7c7e;fill:#d3dae3;fill-opacity:1;stroke-width:1.50825"
       d="m 11.369275,3.977 c -1.6827269,0 -2.9281433,0.00706 -2.9369843,1.6720435 L 8.332727,24.948097 c -0.00505,1.659378 0.079408,3.033691 1.762309,3.028891 l 11.629307,-0.03176 c 1.682591,-0.003 1.804426,-1.336035 1.795568,-2.995948 L 23.420398,5.8489696 c -0.005,-1.6598218 -1.254156,-1.870699 -2.936916,-1.870699 z m 4.555712,20.158818 c 0.841452,0 2.48079,-0.01815 2.48079,0.812279 0,0.829845 -1.639338,0.811704 -2.48079,0.811704 -0.841426,0 -2.672144,0.01876 -2.672144,-0.811704 0,-0.830067 1.830718,-0.812279 2.672144,-0.812279 z M 9.8505687,6.972835 H 22 V 21.952262 H 9.8505687 Z"
       id="rect2990"
       class="ColorScheme-Text"
       inkscape:connector-curvature="0" />
    <path
       style="color:#d3dae3;fill:#009696;fill-opacity:1;stroke-width:0.530408"
       d="m 16.58191,10.3 -1.599518,0.278674 v 5.509201 l 1.591231,-0.205119 -0.0083,-2.483183 1.877148,2.748384 1.843997,-0.265201 -2.12163,-2.844731 2.128881,-2.386833 -1.866786,-0.343945 -1.86161,2.386842 z m -3.363739,1.406821 c -0.01539,9.97e-4 -0.02984,0.008 -0.04146,0.01965 l -0.549054,0.555274 c -0.02387,0.024 -0.02784,0.06145 -0.0092,0.09014 l 0.663011,1.018342 c -0.125077,0.221964 -0.219576,0.465339 -0.280748,0.719988 L 11.856,14.39096 c -0.03172,0.0078 -0.056,0.0365 -0.056,0.06944 v 0.361548 0.361548 c 0,0.03292 0.02421,0.06163 0.056,0.06945 l 1.144719,0.280739 c 0.06115,0.254652 0.155669,0.498029 0.280748,0.719991 l -0.66301,1.018337 c -0.01853,0.02868 -0.01453,0.06613 0.0092,0.09013 l 0.549058,0.555273 c 0.02311,0.02341 0.0591,0.02528 0.08697,0.0083 l 1.03906,-0.637107 c 0.203848,0.118758 0.522723,0.214305 0.755211,0.277635 l 0.243454,1.175798 c 0.0072,0.03393 0.03376,0.058 0.0673,0.058 h 0.409199 0.409203 c 0.03366,0 0.06055,-0.02402 0.06731,-0.058 l 0.243452,-1.175798 c 0.23249,-0.06335 0.55136,-0.158884 0.755212,-0.27764 l 1.039064,0.63711 c 0.02797,0.01695 0.06383,0.01509 0.08696,-0.0083 l 0.549063,-0.555274 c 0.02387,-0.02401 0.02785,-0.06145 0.0093,-0.09013 l -0.552163,-0.848441 -0.06838,0.01011 -0.38745,-0.567705 c -0.395715,0.829537 -1.232584,1.358173 -2.151672,1.35917 -1.318213,0 -2.386837,-1.06862 -2.386837,-2.386833 9.62e-4,-0.906007 0.514418,-1.733472 1.326017,-2.136139 v -0.521038 c -0.151291,0.05041 -0.299948,0.107355 -0.414378,0.174045 l -1.039002,-0.637076 c -0.01401,-0.0085 -0.03017,-0.01267 -0.04562,-0.0113 z"
       class="ColorScheme-Text"
       id="path10" />
  </g>
  <g
     id="22-22-kdeconnect"
     transform="translate(-32,-10)">
    <rect
       style="opacity:0.00100002"
       width="22"
       height="22"
       x="32"
       y="10"
       id="rect2" />
    <path
       sodipodi:nodetypes="ssssssssssssssccccc"
       style="color:#7b7c7e;fill:#d3dae3;fill-opacity:1;stroke-width:1.00565"
       d="m 39.910779,13 c -1.122144,0 -1.952668,0.0048 -1.958562,1.114696 l -0.06638,12.866035 c -0.0032,1.106252 0.05295,2.022461 1.175216,2.019261 l 7.755137,-0.02117 c 1.122054,-0.002 1.203302,-0.890692 1.197393,-1.997301 L 47.947216,14.24798 c -0.0033,-1.106552 -0.836355,-1.247133 -1.95852,-1.247133 z m 3.038034,13.439213 c 0.561126,0 1.654341,-0.0121 1.654341,0.541518 0,0.55323 -1.093215,0.541136 -1.654341,0.541136 -0.561117,0 -1.781953,0.01251 -1.781953,-0.541136 0,-0.55338 1.220836,-0.541518 1.781953,-0.541518 z M 38.898014,14.997221 H 47 v 9.986283 h -8.101986 z"
       id="rect2990-3"
       class="ColorScheme-Text"
       inkscape:connector-curvature="0" />
    <path
       style="color:#d3dae3;fill:#009696;fill-opacity:1;stroke-width:0.344774"
       d="m 43.311416,17.238 -1.039703,0.181137 v 3.581047 l 1.034315,-0.133331 -0.0053,-1.614095 1.22017,1.786478 1.198617,-0.172383 -1.379083,-1.849104 1.383794,-1.551474 -1.213431,-0.22356 -1.210067,1.55147 z m -2.186468,0.91445 c -0.01003,7.03e-4 -0.01943,0.005 -0.02691,0.01281 l -0.356894,0.36093 c -0.01554,0.01564 -0.01805,0.04 -0.0062,0.0586 l 0.430965,0.661936 c -0.08132,0.144279 -0.14273,0.302473 -0.182488,0.468001 l -0.744061,0.182482 c -0.02068,0.0048 -0.03636,0.02371 -0.03636,0.04507 v 0.235017 0.235006 c 0,0.02135 0.01575,0.04006 0.03636,0.04509 l 0.744082,0.182483 c 0.03973,0.165527 0.10119,0.323723 0.182489,0.467999 l -0.430964,0.661935 c -0.01199,0.01859 -0.0094,0.04294 0.0062,0.05859 l 0.356894,0.360939 c 0.01506,0.01517 0.03842,0.01638 0.0566,0.0053 l 0.675406,-0.41413 c 0.132502,0.07718 0.339775,0.1393 0.490893,0.180465 l 0.158245,0.76429 c 0.0042,0.02203 0.02189,0.03774 0.04379,0.03774 h 0.265985 0.265985 c 0.02183,0 0.0394,-0.01566 0.0438,-0.03774 l 0.158247,-0.764283 c 0.151121,-0.04113 0.358391,-0.103276 0.490895,-0.18047 l 0.675402,0.414131 c 0.01815,0.011 0.04152,0.0097 0.05659,-0.0053 l 0.35688,-0.360933 c 0.01554,-0.01565 0.01806,-0.04 0.0063,-0.05859 l -0.358915,-0.551501 -0.04446,0.007 -0.251848,-0.369016 c -0.257218,0.539208 -0.801192,0.882829 -1.398611,0.883477 -0.856851,0 -1.55147,-0.694617 -1.55147,-1.551469 6.25e-4,-0.588915 0.334377,-1.126777 0.861928,-1.388515 v -0.338792 c -0.09834,0.03283 -0.194972,0.06982 -0.269353,0.113132 l -0.675478,-0.414193 c -0.009,-0.0055 -0.01963,-0.0083 -0.0296,-0.0077 z"
       class="ColorScheme-Text"
       id="path10-5" />
  </g>
</svg>
