<?xml version="1.0" encoding="UTF-8" standalone="no"?>
<svg
   xmlns:dc="http://purl.org/dc/elements/1.1/"
   xmlns:cc="http://creativecommons.org/ns#"
   xmlns:rdf="http://www.w3.org/1999/02/22-rdf-syntax-ns#"
   xmlns:svg="http://www.w3.org/2000/svg"
   xmlns="http://www.w3.org/2000/svg"
   xmlns:sodipodi="http://sodipodi.sourceforge.net/DTD/sodipodi-0.dtd"
   xmlns:inkscape="http://www.inkscape.org/namespaces/inkscape"
   version="1.1"
   width="54"
   height="32.000011"
   id="svg2"
   viewBox="0 0 54 32.000011"
   sodipodi:docname="keyboard.svg"
   inkscape:version="1.0.1 (3bc2e813f5, 2020-09-07)">
  <sodipodi:namedview
     pagecolor="#ffffff"
     bordercolor="#666666"
     borderopacity="1"
     objecttolerance="10"
     gridtolerance="10"
     guidetolerance="10"
     inkscape:pageopacity="0"
     inkscape:pageshadow="2"
     inkscape:window-width="1920"
     inkscape:window-height="1007"
     id="namedview12"
     showgrid="false"
     inkscape:zoom="5.6296296"
     inkscape:cx="1.1546051"
     inkscape:cy="16.000006"
     inkscape:window-x="0"
     inkscape:window-y="0"
     inkscape:window-maximized="1"
     inkscape:current-layer="svg2"
     inkscape:document-rotation="0" />
  <defs
     id="defs4">
    <style
       type="text/css"
       id="current-color-scheme">
      .ColorScheme-Text {
        color:#31363b;
      }
      .ColorScheme-Background {
        color:#eff0f1;
      }
      .ColorScheme-Highlight {
        color:#3daee9;
      }
      .ColorScheme-ViewText {
        color:#31363b;
      }
      .ColorScheme-ViewBackground {
        color:#fcfcfc;
      }
      .ColorScheme-ViewHover {
        color:#93cee9;
      }
      .ColorScheme-ViewFocus{
        color:#3daee9;
      }
      .ColorScheme-ButtonText {
        color:#31363b;
      }
      .ColorScheme-ButtonBackground {
        color:#eff0f1;
      }
      .ColorScheme-ButtonHover {
        color:#93cee9;
      }
      .ColorScheme-ButtonFocus{
        color:#3daee9;
      }
      </style>
  </defs>
  <metadata
     id="metadata7">
    <rdf:RDF>
      <cc:Work
         rdf:about="">
        <dc:format>image/svg+xml</dc:format>
        <dc:type
           rdf:resource="http://purl.org/dc/dcmitype/StillImage" />
        <dc:title />
      </cc:Work>
    </rdf:RDF>
  </metadata>
  <g
     transform="translate(0,10.00001)"
     id="22-22-keyboard-layout">
    <rect
       style="fill:none;fill-rule:evenodd;stroke:none;stroke-width:1px;stroke-linecap:butt;stroke-linejoin:miter;stroke-opacity:1"
       id="rect4209"
       width="22"
       height="22"
       x="0"
       y="0" />
    <path
       style="fill:#d3dae3;fill-opacity:1;stroke:none"
       d="m 13,1033.3622 v 1 1 c 0,0.554 -0.446,1 -1,1 -1.108,0 -2,0.892 -2,2 H 2 v 11 h 18 v -11 h -9 c 0,-0.554 0.446,-1 1,-1 1.108,0 2,-0.892 2,-2 v -1 -1 z m -10,6 h 7 1 8 v 1 H 3 Z m 0,2 h 16 v 7 H 15 7 3 Z m 1,1 v 1 h 2 v -1 z m 3,0 v 1 h 2 v -1 z m 3,0 v 1 h 2 v -1 z m 3,0 v 1 h 2 v -1 z m 3,0 v 1 h 2 v -1 z m -12,2 v 1 h 2 v -1 z m 3,0 v 1 h 2 v -1 z m 3,0 v 1 h 2 v -1 z m 3,0 v 1 h 2 v -1 z m 3,0 v 1 h 2 v -1 z m -12,2 v 1 h 2 v -1 z m 3,0 v 1 h 8 v -1 z m 9,0 v 1 h 2 v -1 z"
       transform="translate(0,-1030.3622)"
       class="ColorScheme-Text"
       id="path4211" />
  </g>
  <g
     id="keyboard-layout"
     transform="matrix(1.4545455,0,0,1.4545455,21.999998,0)">
    <rect
       y="0"
       x="0"
       height="22"
       width="22"
       id="rect4215"
       style="fill:none;fill-rule:evenodd;stroke:none;stroke-width:1px;stroke-linecap:butt;stroke-linejoin:miter;stroke-opacity:1" />
    <path
       id="path4217"
       transform="matrix(0.68749998,0,0,0.68749998,-15.124999,22.000003)"
       d="m 47,-28 c 0,0.839286 -0.09344,1.439871 -0.248047,1.845703 -0.154602,0.405832 -0.347892,0.621232 -0.628906,0.785156 C 45.561021,-25.041291 44.5,-25 43,-25 c -1.5,0 -2.935631,-0.0273 -4.099609,0.554688 -0.58199,0.290994 -1.080576,0.752947 -1.408203,1.408203 C 37.21931,-22.491354 37.067093,-21.815455 37.021484,-21 H 25 V -4 H 25.5 51 V -21 H 38.021484 c 0.04382,-0.685454 0.170932,-1.207097 0.361328,-1.587891 0.234873,-0.469744 0.548787,-0.757791 0.966797,-0.966797 C 40.185631,-23.972698 41.5,-24 43,-24 c 1.5,0 2.688979,0.04129 3.626953,-0.505859 0.468986,-0.273576 0.838197,-0.714426 1.058594,-1.292969 C 47.905944,-26.377371 48,-27.089286 48,-28 Z m -21,8 h 24 v 2 H 26 Z m 0,3 H 50 V -5 H 26 Z m 1,2 v 2 h 1 v -2 z m 2,0 v 2 h 2 v -2 z m 3,0 v 2 h 2 v -2 z m 3,0 v 2 h 2 v -2 z m 3,0 v 2 h 2 v -2 z m 3,0 v 2 h 2 v -2 z m 3,0 v 2 h 2 v -2 z m 3,0 v 2 h 2 v -2 z m -20,3 v 2 h 3 v -2 z m 4,0 v 2 h 2 v -2 z m 3,0 v 2 h 2 v -2 z m 3,0 v 2 h 2 v -2 z m 3,0 v 2 h 2 v -2 z m 3,0 v 2 h 2 v -2 z m 3,0 v 2 h 3 v -2 z m -19,3 v 2 h 2 v -2 z m 3,0 v 2 h 2 v -2 z m 3,0 v 2 h 10 v -2 z m 11,0 v 2 h 2 v -2 z m 3,0 v 2 h 2 v -2 z"
       class="ColorScheme-Text"
       style="fill:#d3dae3;fill-opacity:1;stroke:none" />
  </g>
</svg>
