<?xml version="1.0" encoding="UTF-8" standalone="no"?>
<svg
   xmlns:dc="http://purl.org/dc/elements/1.1/"
   xmlns:cc="http://creativecommons.org/ns#"
   xmlns:rdf="http://www.w3.org/1999/02/22-rdf-syntax-ns#"
   xmlns:svg="http://www.w3.org/2000/svg"
   xmlns="http://www.w3.org/2000/svg"
   xmlns:sodipodi="http://sodipodi.sourceforge.net/DTD/sodipodi-0.dtd"
   xmlns:inkscape="http://www.inkscape.org/namespaces/inkscape"
   width="32"
   height="32"
   version="1.1"
   id="svg12"
   sodipodi:docname="kmail.svg"
   inkscape:version="1.0.2 (e86c870879, 2021-01-15)">
  <metadata
     id="metadata18">
    <rdf:RDF>
      <cc:Work
         rdf:about="">
        <dc:format>image/svg+xml</dc:format>
        <dc:type
           rdf:resource="http://purl.org/dc/dcmitype/StillImage" />
      </cc:Work>
    </rdf:RDF>
  </metadata>
  <defs
     id="defs16" />
  <sodipodi:namedview
     pagecolor="#ffffff"
     bordercolor="#666666"
     borderopacity="1"
     objecttolerance="10"
     gridtolerance="10"
     guidetolerance="10"
     inkscape:pageopacity="0"
     inkscape:pageshadow="2"
     inkscape:window-width="1920"
     inkscape:window-height="1007"
     id="namedview14"
     showgrid="false"
     inkscape:zoom="13.876971"
     inkscape:cx="19.147124"
     inkscape:cy="14.315435"
     inkscape:window-x="0"
     inkscape:window-y="0"
     inkscape:window-maximized="1"
     inkscape:current-layer="svg12"
     inkscape:document-rotation="0" />
  <g
     id="kmail">
    <rect
       style="opacity:0.00100002"
       width="32"
       height="32"
       x="0"
       y="0"
       id="rect7" />
    <path
       d="M 29.516209,6.125 H 2.483792 c -0.672175,0 -1.218815,0.546639 -1.218815,1.218814 v 17.562371 c 0,0.672176 0.54664,1.218815 1.218815,1.218815 h 27.032417 c 0.672175,0 1.218814,-0.546639 1.218814,-1.218815 V 7.343814 C 30.735023,6.671639 30.188384,6.125 29.516209,6.125 Z m 0.405212,18.781185 c 0,0.223264 -0.181948,0.405212 -0.405212,0.405212 H 2.483792 c -0.223264,0 -0.405212,-0.181948 -0.405212,-0.405212 V 10.269908 L 16,16.571528 29.921421,10.269908 Z m 0,-15.529358 L 16,15.678472 2.07858,9.376827 V 7.343814 c 0,-0.223264 0.181948,-0.405212 0.405212,-0.405212 h 27.032417 c 0.223264,0 0.405212,0.181948 0.405212,0.405212 z"
       id="path2"
       style="fill:#d3dae3;fill-opacity:1;stroke-width:0.406801" />
    <path
       inkscape:connector-curvature="0"
       id="path4252-3"
       style="font-style:normal;font-variant:normal;font-weight:normal;font-stretch:normal;font-size:18.5263px;line-height:125%;font-family:'Product Sans';-inkscape-font-specification:'Product Sans';letter-spacing:0px;word-spacing:0px;fill:#009696;fill-opacity:1;stroke:none;stroke-width:0.250006;stroke-linecap:butt;stroke-linejoin:miter;stroke-miterlimit:4;stroke-dasharray:none;stroke-opacity:0.85"
       d="m 23.80262,15.581 q 1.684427,0 2.834793,1.170956 1.150324,1.171032 1.150324,2.829004 0,0.932702 -0.400536,1.544075 -0.390295,0.611416 -1.140088,0.611416 -0.770368,0 -1.150364,-0.756478 -0.503295,0.756478 -1.437943,0.756478 -0.842266,0 -1.417387,-0.59067 -0.575213,-0.601061 -0.575213,-1.523301 0,-0.91192 0.575213,-1.51303 0.575121,-0.60099 1.376289,-0.60099 0.790888,0 1.31471,0.611431 h 0.0412 v -0.466318 h 0.739512 v 2.704647 q 0,0.269419 0.14378,0.487003 0.154044,0.217586 0.462233,0.217586 0.729216,0 0.729216,-1.481849 0,-1.36784 -0.944938,-2.310856 -0.944961,-0.942984 -2.300698,-0.942984 -1.355759,0 -2.300768,0.942984 -0.944885,0.943016 -0.944885,2.310856 0,1.367927 0.944885,2.310934 0.945009,0.942941 2.300768,0.942941 0.729219,0 1.304367,-0.290118 l 0.287633,0.704645 q -0.719013,0.331638 -1.592,0.331638 -1.70498,0 -2.865653,-1.16065 -1.1606,-1.170961 -1.1606,-2.83939 0,-1.657972 1.1606,-2.829004 Q 22.107963,15.581 23.802723,15.581 Z m -0.955224,5.005187 q 0.369775,0.3627 0.883301,0.3627 0.513558,0 0.873045,-0.3627 0.369776,-0.36272 0.369776,-0.963707 0,-0.601108 -0.369776,-0.963758 -0.359487,-0.362696 -0.873045,-0.362696 -0.513526,0 -0.883301,0.362696 -0.359499,0.36265 -0.359499,0.963758 0,0.600987 0.359499,0.963707 z" />
  </g>
  <g
     id="22-22-kmail">
    <g
       id="g992"
       transform="translate(32,10)">
      <rect
         style="opacity:0.00100002"
         width="22"
         height="22"
         x="0"
         y="0"
         id="rect2" />
    </g>
    <path
       d="M 52.461344,14.082 H 33.538647 c -0.470523,0 -0.85317,0.382653 -0.85317,0.853174 v 12.293651 c 0,0.470522 0.382647,0.853175 0.85317,0.853175 h 18.922697 c 0.47052,0 0.85317,-0.382653 0.85317,-0.853175 V 14.935174 c 0,-0.470521 -0.38265,-0.853174 -0.85317,-0.853174 z m 0.28365,13.146825 c 0,0.156291 -0.127367,0.283652 -0.28365,0.283652 H 33.538647 c -0.156285,0 -0.283648,-0.127361 -0.283648,-0.283652 V 16.98343 L 43,21.394564 52.744994,16.98343 Z m 0,-10.870538 L 43,20.769436 33.254999,16.358287 v -1.423113 c 0,-0.156291 0.127363,-0.283652 0.283648,-0.283652 h 18.922697 c 0.156283,0 0.28365,0.127361 0.28365,0.283652 z"
       id="path2-6"
       style="fill:#d3dae3;fill-opacity:1;stroke-width:0.284761" />
    <path
       inkscape:connector-curvature="0"
       id="path4252-3-6"
       style="font-style:normal;font-variant:normal;font-weight:normal;font-stretch:normal;font-size:18.5263px;line-height:125%;font-family:'Product Sans';-inkscape-font-specification:'Product Sans';letter-spacing:0px;word-spacing:0px;fill:#009696;fill-opacity:1;stroke:none;stroke-width:0.156256;stroke-linecap:butt;stroke-linejoin:miter;stroke-miterlimit:4;stroke-dasharray:none;stroke-opacity:0.85"
       d="m 48.895246,21.269793 q 1.052768,0 1.771746,0.731846 0.718952,0.731895 0.718952,1.768129 0,0.582938 -0.25033,0.96505 -0.243939,0.382133 -0.712556,0.382133 -0.481484,0 -0.718981,-0.472798 -0.314557,0.472798 -0.898713,0.472798 -0.526418,0 -0.885869,-0.36917 -0.359506,-0.375663 -0.359506,-0.952063 0,-0.56995 0.359506,-0.945646 0.359451,-0.375617 0.860181,-0.375617 0.494306,0 0.821696,0.382146 h 0.02576 v -0.291448 h 0.462192 v 1.690402 q 0,0.168387 0.08986,0.304376 0.09628,0.135991 0.2889,0.135991 0.455755,0 0.455755,-0.926154 0,-0.8549 -0.590588,-1.444287 -0.590601,-0.589363 -1.437931,-0.589363 -0.847349,0 -1.437986,0.589363 -0.59055,0.589387 -0.59055,1.444287 0,0.854952 0.59055,1.444336 0.590637,0.589335 1.437986,0.589335 0.455763,0 0.815227,-0.181322 l 0.179773,0.440401 q -0.449386,0.207275 -0.995,0.207275 -1.065617,0 -1.791036,-0.725409 -0.725375,-0.73185 -0.725375,-1.774616 0,-1.036234 0.725375,-1.768129 0.731808,-0.731846 1.791036,-0.731846 z m -0.597014,3.12824 q 0.231107,0.226687 0.552061,0.226687 0.320977,0 0.545655,-0.226687 0.231113,-0.2267 0.231113,-0.602315 0,-0.375693 -0.231113,-0.60235 -0.224678,-0.226686 -0.545655,-0.226686 -0.320954,0 -0.552061,0.226686 -0.224689,0.226657 -0.224689,0.60235 0,0.375615 0.224689,0.602315 z" />
  </g>
</svg>
