<?xml version="1.0" encoding="UTF-8" standalone="no"?>
<svg
   width="32"
   height="32"
   version="1.1"
   id="svg12"
   sodipodi:docname="plasmavault.svg"
   inkscape:version="1.1.2 (0a00cf5339, 2022-02-04)"
   xmlns:inkscape="http://www.inkscape.org/namespaces/inkscape"
   xmlns:sodipodi="http://sodipodi.sourceforge.net/DTD/sodipodi-0.dtd"
   xmlns="http://www.w3.org/2000/svg"
   xmlns:svg="http://www.w3.org/2000/svg"
   xmlns:rdf="http://www.w3.org/1999/02/22-rdf-syntax-ns#"
   xmlns:cc="http://creativecommons.org/ns#"
   xmlns:dc="http://purl.org/dc/elements/1.1/">
  <metadata
     id="metadata18">
    <rdf:RDF>
      <cc:Work
         rdf:about="">
        <dc:format>image/svg+xml</dc:format>
        <dc:type
           rdf:resource="http://purl.org/dc/dcmitype/StillImage" />
      </cc:Work>
    </rdf:RDF>
  </metadata>
  <defs
     id="defs16" />
  <sodipodi:namedview
     pagecolor="#ffffff"
     bordercolor="#666666"
     borderopacity="1"
     objecttolerance="10"
     gridtolerance="10"
     guidetolerance="10"
     inkscape:pageopacity="0"
     inkscape:pageshadow="2"
     inkscape:window-width="1920"
     inkscape:window-height="1013"
     id="namedview14"
     showgrid="false"
     inkscape:zoom="9.8125"
     inkscape:cx="33.783439"
     inkscape:cy="11.159236"
     inkscape:window-x="0"
     inkscape:window-y="0"
     inkscape:window-maximized="1"
     inkscape:current-layer="svg12"
     inkscape:pagecheckerboard="0"
     inkscape:lockguides="true">
    <inkscape:grid
       type="xygrid"
       id="grid860"
       originx="0"
       originy="0" />
  </sodipodi:namedview>
  <g
     id="plasmavault">
    <rect
       style="opacity:0.00100002"
       width="32"
       height="32"
       x="0"
       y="0"
       id="rect7" />
    <path
       style="color:#000000;font-style:normal;font-variant:normal;font-weight:normal;font-stretch:normal;font-size:medium;line-height:normal;font-family:Sans;-inkscape-font-specification:Sans;text-indent:0;text-align:start;text-decoration:none;text-decoration-line:none;letter-spacing:normal;word-spacing:normal;text-transform:none;writing-mode:lr-tb;direction:ltr;baseline-shift:baseline;text-anchor:start;display:inline;overflow:visible;visibility:visible;fill:#d3dae3;fill-opacity:1;fill-rule:nonzero;stroke:none;stroke-width:1.11654;marker:none;enable-background:accumulate"
       d="M 6.062371,6.00008 C 4.950251,6.00008 4,6.817197 4,7.9018519 V 23.906453 c 0,0.675681 0.233219,1.10982 0.686009,1.503732 0.452789,0.393911 0.922705,0.589739 1.522321,0.589739 h 19.062962 c 0.457664,0.0081 0.444648,-0.635682 1.08e-4,-0.642509 L 6.181959,25.345986 c -0.589972,0 -1.080181,-0.42654 -1.080181,-0.42654 0,0 -0.451729,-0.34757 -0.451729,-1.013049 V 7.9017949 c 0,-0.7474632 0.49606,-1.2270255 1.362563,-1.2172684 l 6.710163,-0.00347 3.199778,2.9230881 c 0.09669,0.089398 0.22048,0.2168536 0.349405,0.2197096 l 9.304184,-0.0033 c 0.474407,-0.0028 0.459415,-0.6698233 -0.015,-0.6776232 H 16.467958 L 13.076122,6.1339408 C 12.978232,6.047765 12.854563,6.0003628 12.726715,6 Z m 10.82319,0.8303513 c -0.432935,-0.00117 -0.4338,0.7631144 0.01082,0.7696257 l 8.298316,-0.011656 c 0.840856,-0.00117 1.205136,0.2780435 1.48511,0.5456901 0.279977,0.2676468 0.705429,0.9228992 0.705429,1.5980949 v 15.696313 c 0.0025,0.531168 0.612945,0.548653 0.614766,0.01828 L 27.998302,9.7320924 C 27.998236,8.8148456 27.705581,8.0468768 27.18019,7.5446204 26.654804,7.042364 25.939508,6.8303395 25.19452,6.8303395 h -8.25801 c -0.01704,-8.571e-4 -0.03409,-8.571e-4 -0.05113,0 z"
       id="path2-3"
       sodipodi:nodetypes="sssssccscsssccccccccsccsssccssscc" />
    <path
       d="m 20.78267,16.882666 h -0.359643 l -0.0013,-1.641332 c -0.0013,-1.788 -1.589982,-3.242666 -3.542514,-3.241333 -1.952534,0.0013 -3.541059,1.456 -3.539604,3.244 l 0.0027,1.641332 h -0.128117 c -0.671226,0.0013 -1.215785,0.5 -1.214323,1.114667 v 4.886666 c 0,0.614667 0.546009,1.113333 1.217234,1.113333 l 7.568433,-0.004 c 0.67123,0 1.215785,-0.498666 1.214327,-1.113333 v -4.888 c 0,-0.614666 -0.54601,-1.112 -1.217237,-1.112 z m -6.135701,0.0027 -0.0027,-1.641332 c 0,-1.129333 1.001749,-2.048 2.235003,-2.049333 1.233256,0 2.236457,0.918666 2.236457,2.046666 l 0.0027,1.641333 z"
       id="path2"
       style="fill:#d3dae3;fill-opacity:1;stroke-width:0.139332" />
  </g>
  <g
     id="22-22-plasmavault">
    <rect
       style="opacity:0.00100002"
       width="22"
       height="22"
       x="32"
       y="10"
       id="rect2" />
    <path
       style="color:#000000;font-style:normal;font-variant:normal;font-weight:normal;font-stretch:normal;font-size:medium;line-height:normal;font-family:Sans;-inkscape-font-specification:Sans;text-indent:0;text-align:start;text-decoration:none;text-decoration-line:none;letter-spacing:normal;word-spacing:normal;text-transform:none;writing-mode:lr-tb;direction:ltr;baseline-shift:baseline;text-anchor:start;display:inline;overflow:visible;visibility:visible;fill:#d3dae3;fill-opacity:1;fill-rule:nonzero;stroke:none;stroke-width:0.762709;marker:none;enable-background:accumulate"
       d="M 36.374915,14.000716 C 35.633501,14.000716 35,14.572674 35,15.331893 v 11.202692 c 0,0.472959 0.15548,0.776841 0.45734,1.052563 0.301859,0.275727 0.615137,0.412801 1.014881,0.412801 h 12.708653 c 0.305105,0.0055 0.296428,-0.444958 6.2e-5,-0.449735 l -12.726296,-0.0089 c -0.393315,0 -0.72012,-0.298562 -0.72012,-0.298562 0,0 -0.301154,-0.243287 -0.301154,-0.709103 V 15.331391 c 0,-0.523196 0.330707,-0.858873 0.908375,-0.85204 l 4.473446,-0.0027 2.133186,2.046067 c 0.06446,0.06267 0.146986,0.151791 0.232936,0.15379 l 6.202788,-0.0027 c 0.316279,-0.0022 0.306278,-0.468857 -0.01004,-0.474313 H 43.311976 L 41.050752,14.093709 C 40.985492,14.033499 40.903046,14.000272 40.817814,14 Z m 7.215464,0.581218 c -0.288624,-0.0011 -0.289201,0.534152 0.0072,0.538711 l 5.532214,-0.0091 c 0.560567,-0.0011 0.803421,0.194618 0.990074,0.381964 0.186647,0.187343 0.470288,0.646002 0.470288,1.118615 V 27.59906 c 0.0022,0.371801 0.408633,0.384041 0.40984,0.01282 l -0.0017,-10.99977 c -4.4e-5,-0.642007 -0.195148,-1.179563 -0.545406,-1.531124 -0.350259,-0.35156 -0.827126,-0.499975 -1.323785,-0.499975 h -5.504759 c -0.01136,-5.98e-4 -0.02273,-5.98e-4 -0.03409,0 z"
       id="path2-3-3"
       sodipodi:nodetypes="sssssccscsssccccccccsccsssccssscc" />
    <path
       d="m 46.147946,21.255114 h -0.251749 l -9.84e-4,-1.094217 c -9.85e-4,-1.192002 -1.112989,-2.161783 -2.47976,-2.160896 -1.366774,0.0013 -2.478743,0.970667 -2.477723,2.16267 l 0.0018,1.094226 h -0.08962 c -0.469859,0.0013 -0.85105,0.333331 -0.850027,0.743107 v 3.257779 c 0,0.409782 0.382206,0.742225 0.852063,0.742225 l 5.297904,-0.0029 c 0.469859,0 0.851052,-0.332445 0.850029,-0.742223 v -3.25867 c 0,-0.409779 -0.382207,-0.741335 -0.852061,-0.741335 z m -4.294991,0.0023 -0.0018,-1.094224 c 0,-0.75289 0.701222,-1.365333 1.5645,-1.366224 0.863279,0 1.565522,0.612447 1.565522,1.364449 l 0.0019,1.094219 z"
       id="path2-6"
       style="fill:#d3dae3;fill-opacity:1;stroke-width:0.095179" />
  </g>
</svg>
