<?xml version="1.0" encoding="UTF-8" standalone="no"?>
<svg
   width="32"
   height="32"
   version="1.1"
   id="svg12"
   sodipodi:docname="plasmavault_error.svg"
   inkscape:version="1.1.2 (0a00cf5339, 2022-02-04)"
   xmlns:inkscape="http://www.inkscape.org/namespaces/inkscape"
   xmlns:sodipodi="http://sodipodi.sourceforge.net/DTD/sodipodi-0.dtd"
   xmlns="http://www.w3.org/2000/svg"
   xmlns:svg="http://www.w3.org/2000/svg"
   xmlns:rdf="http://www.w3.org/1999/02/22-rdf-syntax-ns#"
   xmlns:cc="http://creativecommons.org/ns#"
   xmlns:dc="http://purl.org/dc/elements/1.1/">
  <metadata
     id="metadata18">
    <rdf:RDF>
      <cc:Work
         rdf:about="">
        <dc:format>image/svg+xml</dc:format>
        <dc:type
           rdf:resource="http://purl.org/dc/dcmitype/StillImage" />
      </cc:Work>
    </rdf:RDF>
  </metadata>
  <defs
     id="defs16" />
  <sodipodi:namedview
     pagecolor="#ffffff"
     bordercolor="#666666"
     borderopacity="1"
     objecttolerance="10"
     gridtolerance="10"
     guidetolerance="10"
     inkscape:pageopacity="0"
     inkscape:pageshadow="2"
     inkscape:window-width="1920"
     inkscape:window-height="1003"
     id="namedview14"
     showgrid="true"
     inkscape:zoom="39.25"
     inkscape:cx="38.178344"
     inkscape:cy="21.324841"
     inkscape:window-x="0"
     inkscape:window-y="0"
     inkscape:window-maximized="1"
     inkscape:current-layer="svg12"
     inkscape:document-rotation="0"
     inkscape:lockguides="true"
     inkscape:pagecheckerboard="0">
    <inkscape:grid
       type="xygrid"
       id="grid868"
       originx="0"
       originy="0" />
  </sodipodi:namedview>
  <g
     id="plasmavault_error">
    <rect
       style="opacity:0.00100002"
       width="32"
       height="32"
       x="0"
       y="0"
       id="rect7" />
    <path
       style="color:#000000;font-style:normal;font-variant:normal;font-weight:normal;font-stretch:normal;font-size:medium;line-height:normal;font-family:Sans;-inkscape-font-specification:Sans;text-indent:0;text-align:start;text-decoration:none;text-decoration-line:none;letter-spacing:normal;word-spacing:normal;text-transform:none;writing-mode:lr-tb;direction:ltr;baseline-shift:baseline;text-anchor:start;display:inline;overflow:visible;visibility:visible;fill:#ff557f;fill-opacity:1;fill-rule:nonzero;stroke:none;stroke-width:1.11654;marker:none;enable-background:accumulate"
       d="M 6.0623712,6.00008 C 4.9502509,6.00008 4,6.8171969 4,7.901852 v 16.004602 c 0,0.67568 0.2332194,1.10982 0.6860092,1.503731 0.4527894,0.393913 0.9227054,0.589739 1.5223209,0.589739 H 25.271292 c 0.457664,0.0081 0.444648,-0.635681 1.08e-4,-0.642509 L 6.1819588,25.345986 c -0.5899712,0 -1.080181,-0.42654 -1.080181,-0.42654 0,0 -0.4517288,-0.347569 -0.4517288,-1.01305 V 7.9017948 c 0,-0.7474631 0.4960599,-1.2270253 1.3625637,-1.2172683 l 6.7101623,-0.00347 3.199778,2.9230876 c 0.09669,0.0894 0.22048,0.2168541 0.349405,0.2197111 l 9.304184,-0.0034 c 0.474407,-0.0028 0.459415,-0.6698237 -0.015,-0.6776236 H 16.467958 L 13.076122,6.1339274 C 12.978233,6.0477652 12.854563,6.0003628 12.726715,6 Z M 16.885561,6.8304313 c -0.432935,-0.00117 -0.4338,0.7631145 0.01082,0.7696256 l 8.298316,-0.011656 c 0.840856,-0.00117 1.205136,0.2780437 1.48511,0.5456904 0.279977,0.2676467 0.705429,0.9228991 0.705429,1.5980942 V 25.4285 c 0.0025,0.531167 0.612945,0.548651 0.614766,0.01828 L 27.998327,9.7320988 C 27.998241,8.8148454 27.705586,8.0468768 27.180195,7.5446204 26.654809,7.0423639 25.939513,6.8303396 25.194525,6.8303396 h -8.25801 c -0.01704,-8.57e-4 -0.03409,-8.57e-4 -0.05113,0 z"
       id="path2-3"
       sodipodi:nodetypes="sssssccscsssccccccccsccsssccssscc" />
    <path
       d="M 19.329334,16.299667 H 19 l -0.0013,-1.641333 c -0.0013,-1.788 -1.456,-3.242666 -3.244,-3.241333 -1.788,0.0013 -3.242666,1.456 -3.241333,3.244 l 0.0027,1.641333 h -0.117333 c -0.614667,0.0013 -1.113334,0.5 -1.112,1.114667 v 4.886666 c 0,0.614667 0.5,1.113333 1.114666,1.113333 l 6.930666,-0.004 c 0.614667,0 1.113334,-0.498666 1.112,-1.113333 v -4.888 c 0,-0.614666 -0.5,-1.112 -1.114666,-1.112 z m -5.618667,0.0027 -0.0027,-1.641333 c 0,-1.129333 0.917333,-2.048 2.046666,-2.049333 1.129334,0 2.048,0.918666 2.048,2.046666 l 0.0027,1.641334 z"
       id="path2"
       style="fill:#ff557f;fill-opacity:1;stroke-width:0.133333" />
  </g>
  <g
     id="22-22-plasmavault_error">
    <rect
       style="opacity:0.00100002"
       width="22"
       height="22"
       x="32"
       y="10"
       id="rect2" />
    <path
       style="color:#000000;font-style:normal;font-variant:normal;font-weight:normal;font-stretch:normal;font-size:medium;line-height:normal;font-family:Sans;-inkscape-font-specification:Sans;text-indent:0;text-align:start;text-decoration:none;text-decoration-line:none;letter-spacing:normal;word-spacing:normal;text-transform:none;writing-mode:lr-tb;direction:ltr;baseline-shift:baseline;text-anchor:start;display:inline;overflow:visible;visibility:visible;fill:#ff557f;fill-opacity:1;fill-rule:nonzero;stroke:none;stroke-width:0.762746;marker:none;enable-background:accumulate"
       d="M 36.374914,14.000052 C 35.633501,14.000052 35,14.572038 35,15.331294 v 11.203228 c 0,0.472977 0.15548,0.776874 0.45734,1.052613 0.301859,0.275737 0.615136,0.412817 1.01488,0.412817 h 12.708641 c 0.305109,0.0054 0.296432,-0.444977 7.2e-5,-0.449756 l -12.726294,-0.0084 c -0.393314,0 -0.72012,-0.298582 -0.72012,-0.298582 0,0 -0.301153,-0.243298 -0.301153,-0.709134 V 15.331214 c 0,-0.523229 0.330707,-0.858917 0.908376,-0.852093 l 4.473441,-0.0023 2.133186,2.046164 c 0.06446,0.06261 0.146986,0.151797 0.232936,0.153799 l 6.202789,-0.0022 c 0.316271,-0.0019 0.306277,-0.468876 -0.01,-0.474336 h -6.062122 l -2.261224,-2.10643 C 40.985488,14.033437 40.903042,14.000256 40.81781,14 Z m 7.21546,0.581249 c -0.288624,-8.04e-4 -0.2892,0.534184 0.0072,0.538736 l 5.53221,-0.0086 c 0.560571,-8.01e-4 0.803424,0.194631 0.990074,0.381983 0.186651,0.187353 0.470286,0.646029 0.470286,1.118667 v 10.9875 c 0.0017,0.371818 0.40863,0.384055 0.409844,0.01279 l -0.0011,-11.000288 c -5.7e-5,-0.642075 -0.19516,-1.179655 -0.545421,-1.531234 -0.350261,-0.351559 -0.827126,-0.499977 -1.323784,-0.499977 h -5.50534 c -0.01136,-5.98e-4 -0.02273,-5.98e-4 -0.03409,0 z"
       id="path2-3-6"
       sodipodi:nodetypes="sssssccscsssccccccccsccsssccssscc" />
    <path
       d="m 45.231562,21.23312 h -0.219556 l -0.0011,-1.094222 c -0.0012,-1.191999 -0.970719,-2.161779 -2.16272,-2.160892 -1.191999,0.0011 -2.161777,0.97067 -2.160888,2.16267 l 0.0018,1.094222 h -0.07811 c -0.409779,8.31e-4 -0.742223,0.333334 -0.741334,0.743111 v 3.257778 c 0,0.409778 0.333333,0.742222 0.743111,0.742222 l 4.620445,-0.0026 c 0.409777,0 0.74222,-0.332444 0.741333,-0.742222 v -3.258668 c 0,-0.409777 -0.333332,-0.741334 -0.743113,-0.741334 z m -3.74578,0.0018 -0.0018,-1.094222 c 0,-0.752888 0.611556,-1.365332 1.364443,-1.366224 0.752894,0 1.365336,0.612446 1.365336,1.364446 l 0.0021,1.094223 z"
       id="path2-7"
       style="fill:#ff557f;fill-opacity:1;stroke-width:0.0888862" />
  </g>
</svg>
