<?xml version="1.0" encoding="UTF-8" standalone="no"?>
<svg
   xmlns:dc="http://purl.org/dc/elements/1.1/"
   xmlns:cc="http://creativecommons.org/ns#"
   xmlns:rdf="http://www.w3.org/1999/02/22-rdf-syntax-ns#"
   xmlns:svg="http://www.w3.org/2000/svg"
   xmlns="http://www.w3.org/2000/svg"
   xmlns:sodipodi="http://sodipodi.sourceforge.net/DTD/sodipodi-0.dtd"
   xmlns:inkscape="http://www.inkscape.org/namespaces/inkscape"
   viewBox="0 0 22 22"
   id="svg"
   version="1.1"
   width="22"
   height="22"
   sodipodi:docname="preferences.svg"
   inkscape:version="1.0.1 (3bc2e813f5, 2020-09-07)">
  <sodipodi:namedview
     pagecolor="#ffffff"
     bordercolor="#666666"
     borderopacity="1"
     objecttolerance="10"
     gridtolerance="10"
     guidetolerance="10"
     inkscape:pageopacity="0"
     inkscape:pageshadow="2"
     inkscape:window-width="1920"
     inkscape:window-height="1017"
     id="namedview28"
     showgrid="false"
     inkscape:zoom="2.6818182"
     inkscape:cx="106.01897"
     inkscape:cy="113.39676"
     inkscape:window-x="0"
     inkscape:window-y="0"
     inkscape:window-maximized="1"
     inkscape:current-layer="svg"
     inkscape:lockguides="true"
     inkscape:document-rotation="0" />
  <defs
     id="defs81">
    <style
       id="current-color-scheme"
       type="text/css" />
  </defs>
  <metadata
     id="metadata34">
    <rdf:RDF>
      <cc:Work
         rdf:about="">
        <dc:format>image/svg+xml</dc:format>
        <dc:type
           rdf:resource="http://purl.org/dc/dcmitype/StillImage" />
        <dc:title />
      </cc:Work>
    </rdf:RDF>
  </metadata>
  <g
     id="preferences-system-bluetooth"
     transform="translate(39,119)">
    <rect
       style="fill:#ffffff;fill-opacity:0;stroke:none"
       id="rect3009"
       width="22"
       height="22"
       x="1"
       y="1" />
    <path
       id="rect2996"
       d="m 11,4 v 6 L 8,7 v 2 l 3,3 -3,3 v 2 l 3,-3 v 6 l 2,-2 3,-3 -3,-3 3,-3 -3,-3 z m 1,3 2,2 -2,2 z m 0,6 2,2 -2,2 z"
       style="fill:#00b8b8;fill-opacity:1"
       class="ColorScheme-Text" />
  </g>
  <g
     transform="translate(79,119)"
     id="preferences-system-bluetooth-inactive">
    <rect
       y="1"
       x="1"
       height="22"
       width="22"
       id="rect3007"
       style="fill:#ffffff;fill-opacity:0;stroke:none" />
    <path
       style="opacity:0.4;fill:#00b8b8;fill-opacity:1"
       d="m 11,4 v 6 L 8,7 v 2 l 3,3 -3,3 v 2 l 3,-3 v 6 l 2,-2 3,-3 -3,-3 3,-3 -3,-3 z m 1,3 2,2 -2,2 z m 0,6 2,2 -2,2 z"
       id="path3009"
       class="ColorScheme-Text" />
  </g>
  <g
     id="preferences-system-bluetooth-activated"
     transform="translate(-1,119)">
    <rect
       y="1"
       x="1"
       height="22"
       width="22"
       id="rect3783"
       style="fill:#ffffff;fill-opacity:0;stroke:none" />
    <path
       style="fill:#00b8b8;fill-opacity:1"
       d="m 11,4 v 6 L 8,7 v 2 l 3,3 -3,3 v 2 l 3,-3 v 6 l 2,-2 3,-3 -3,-3 3,-3 -3,-3 z M 4,5 C 3.4477153,5 3,5.4477153 3,6 3,6.5522847 3.4477153,7 4,7 4.5522847,7 5,6.5522847 5,6 5,5.4477153 4.5522847,5 4,5 Z m 16,0 c -0.552285,0 -1,0.4477153 -1,1 0,0.5522847 0.447715,1 1,1 0.552285,0 1,-0.4477153 1,-1 0,-0.5522847 -0.447715,-1 -1,-1 z m -8,2 2,2 -2,2 z m -8,4 c -0.5522847,0 -1,0.447715 -1,1 0,0.552285 0.4477153,1 1,1 0.5522847,0 1,-0.447715 1,-1 0,-0.552285 -0.4477153,-1 -1,-1 z m 16,0 c -0.552285,0 -1,0.447715 -1,1 0,0.552285 0.447715,1 1,1 0.552285,0 1,-0.447715 1,-1 0,-0.552285 -0.447715,-1 -1,-1 z m -8,2 2,2 -2,2 z m -8,4 c -0.5522847,0 -1,0.447715 -1,1 0,0.552285 0.4477153,1 1,1 0.5522847,0 1,-0.447715 1,-1 0,-0.552285 -0.4477153,-1 -1,-1 z m 16,0 c -0.552285,0 -1,0.447715 -1,1 0,0.552285 0.447715,1 1,1 0.552285,0 1,-0.447715 1,-1 0,-0.552285 -0.447715,-1 -1,-1 z"
       id="path3785"
       class="ColorScheme-Text" />
  </g>
  <g
     id="preferences-desktop-display-randr"
     transform="translate(-1,-1)">
    <rect
       style="fill:#ffffff;fill-opacity:0;stroke:none"
       id="rect3832"
       width="22"
       height="22"
       x="1"
       y="1" />
    <path
       id="rect7235"
       style="fill:#d3dae3;fill-opacity:1;stroke:none"
       d="M 7.0000091,19.999986 H 17.000027 V 21 H 7.0000091 Z m 3.0000049,-1.999998 h 3.999994 v 1.999983 H 10.000014 Z M 2,4.0000055 V 17.999973 H 21.999999 V 4.0000055 Z m 0.9999988,0.999999 H 21 V 14.999977 H 2.9999988 Z"
       class="ColorScheme-Text" />
    <path
       style="fill:#00b8b8;fill-opacity:1;stroke:none"
       d="m 4,10 4,4 H 4 Z"
       id="rect3018"
       class="ColorScheme-Text" />
    <path
       class="ColorScheme-Text"
       id="path3028"
       d="M 20,10 16,6 h 4 z"
       style="fill:#00b8b8;fill-opacity:1;stroke:none" />
  </g>
  <g
     id="preferences-desktop-notification"
     transform="translate(-2,80)">
    <rect
       y="1"
       x="1"
       height="22"
       width="22"
       id="rect3068"
       style="fill:#ffffff;fill-opacity:0;stroke:none" />
    <rect
       style="fill:#00b8b8;fill-opacity:1;stroke:none"
       id="rect4130-82-0"
       width="15.999978"
       height="15.999987"
       x="4.000011"
       y="4"
       ry="7.999989" />
    <path
       style="fill:#141d28;fill-opacity:1;stroke:none"
       d="m 11.202644,7.1999826 -0.0026,7.2000124 h 1.599998 l 0.0026,-7.2000124 z m 0.799999,7.9999894 c -0.441822,0 -0.799999,0.358171 -0.799999,0.799999 0,0.441827 0.358177,0.799999 0.799999,0.799999 0.441822,0 0.799999,-0.358172 0.799999,-0.799999 0,-0.441828 -0.358177,-0.799999 -0.799999,-0.799999 z"
       id="rect4142-6" />
  </g>
  <g
     id="g1203"
     transform="translate(-40,40)">
    <rect
       y="1"
       x="39"
       height="22"
       width="22"
       id="rect6486-3"
       style="opacity:0.01;fill:#ed1515;fill-opacity:0.00392157;stroke:none" />
    <path
       style="fill:#d3dae3;fill-opacity:1;stroke:none"
       d="M 48.000534,4.0042669 42.003733,9.0016004 H 40.0048 V 14.9984 h 1.998933 l 5.996801,4.997333 H 49 V 4.0042669 Z"
       id="path6448"
       class="ColorScheme-Text" />
    <path
       style="fill:#a1b4ba;fill-opacity:1;stroke:none"
       d="m 45.71875,4.5625 -4.25,4.25 0.71875,0.71875 4.25,-4.25 z m 2.8125,4.375 -5.8125,1.53125 L 43,11.4375 48.78125,9.90625 Z M 43,12.5625 l -0.28125,0.96875 5.8125,1.53125 0.25,-0.96875 z m -0.8125,1.90625 -0.71875,0.71875 4.25,4.25 0.71875,-0.71875 z"
       transform="translate(10)"
       id="rect3062"
       class="ColorScheme-Text" />
  </g>
</svg>
