<?xml version="1.0" encoding="UTF-8" standalone="no"?>
<svg
   inkscape:version="1.3.2 (091e20ef0f, 2023-11-25)"
   sodipodi:docname="start.svg"
   id="svg12"
   version="1.1"
   height="32"
   width="32"
   xmlns:inkscape="http://www.inkscape.org/namespaces/inkscape"
   xmlns:sodipodi="http://sodipodi.sourceforge.net/DTD/sodipodi-0.dtd"
   xmlns:xlink="http://www.w3.org/1999/xlink"
   xmlns="http://www.w3.org/2000/svg"
   xmlns:svg="http://www.w3.org/2000/svg"
   xmlns:rdf="http://www.w3.org/1999/02/22-rdf-syntax-ns#"
   xmlns:cc="http://creativecommons.org/ns#"
   xmlns:dc="http://purl.org/dc/elements/1.1/">
  <metadata
     id="metadata16">
    <rdf:RDF>
      <cc:Work
         rdf:about="">
        <dc:format>image/svg+xml</dc:format>
        <dc:type
           rdf:resource="http://purl.org/dc/dcmitype/StillImage" />
      </cc:Work>
    </rdf:RDF>
  </metadata>
  <sodipodi:namedview
     inkscape:document-rotation="0"
     inkscape:lockguides="true"
     inkscape:current-layer="svg12"
     inkscape:window-maximized="1"
     inkscape:window-y="0"
     inkscape:window-x="0"
     inkscape:cy="38.315959"
     inkscape:cx="26.799023"
     inkscape:zoom="6.772635"
     showgrid="false"
     id="namedview14"
     inkscape:window-height="998"
     inkscape:window-width="1920"
     inkscape:pageshadow="2"
     inkscape:pageopacity="0"
     guidetolerance="10"
     gridtolerance="10"
     objecttolerance="10"
     borderopacity="1"
     bordercolor="#666666"
     pagecolor="#ffffff"
     inkscape:showpageshadow="2"
     inkscape:pagecheckerboard="0"
     inkscape:deskcolor="#d1d1d1" />
  <defs
     id="defs7386">
    <linearGradient
       inkscape:collect="always"
       id="linearGradient850">
      <stop
         style="stop-color:#008080;stop-opacity:1;"
         offset="0"
         id="stop846" />
      <stop
         style="stop-color:#008080;stop-opacity:0.651"
         offset="1"
         id="stop848" />
    </linearGradient>
    <style
       type="text/css"
       id="current-color-scheme">
   .ColorScheme-Text { color:#d3dae3; } .ColorScheme-Highlight { color:#5294e2; } .ColorScheme-ButtonBackground { color:#d3dae3; }
  </style>
    <radialGradient
       gradientUnits="userSpaceOnUse"
       gradientTransform="matrix(1.1998832,0,0,1.1998844,-3.1992986,-2.5981899)"
       r="10.000977"
       fy="15.499997"
       fx="16.000977"
       cy="15.499997"
       cx="16.000977"
       id="radialGradient860"
       xlink:href="#linearGradient850"
       inkscape:collect="always" />
    <radialGradient
       gradientUnits="userSpaceOnUse"
       gradientTransform="matrix(0.99914623,0,0,0.99914624,0.00256131,0.02207594)"
       r="8.0068359"
       fy="10.987305"
       fx="11.006836"
       cy="10.987305"
       cx="11.006836"
       id="radialGradient862"
       xlink:href="#linearGradient850"
       inkscape:collect="always" />
  </defs>
  <g
     id="22-22-start-here-kde"
     transform="translate(37,3)">
    <rect
       style="opacity:0.00100002;vector-effect:none;fill:#000000;fill-opacity:1;stroke:none;stroke-width:2.71574;stroke-linecap:round;stroke-linejoin:round;stroke-miterlimit:4;stroke-dasharray:none;stroke-dashoffset:0;stroke-opacity:1"
       y="0"
       x="0"
       height="22"
       width="22"
       id="rect849" />
    <g
       id="g4500">
      <path
         style="fill:url(#radialGradient862);fill-opacity:1;stroke-width:0.99878"
         d="M 12.007928,3 8.9948774,3.5245582 V 13.894821 L 11.992316,13.508715 11.976704,8.8344912 15.512746,14.007922 18.98634,13.508715 14.989755,8.1539306 19,3.6610604 15.483474,3.0136501 11.976704,7.5065203 Z M 5.6715453,5.6481413 c -0.028947,0.00241 -0.056255,0.015085 -0.078058,0.03705 L 4.5592146,6.7304079 c -0.044912,0.045228 -0.052402,0.1157382 -0.017563,0.1696526 L 5.7905843,8.8169404 C 5.5549761,9.2347585 5.3769533,9.692873 5.2617392,10.172212 L 3.1053788,10.700671 C 3.0455236,10.715347 3,10.769421 3,10.831322 v 0.680561 0.680561 c 0,0.0619 0.045524,0.115975 0.1053788,0.130652 l 2.1563604,0.528458 c 0.1152141,0.47934 0.2932369,0.937455 0.528845,1.355272 l -1.2489327,1.91688 c -0.034838,0.05391 -0.027349,0.124425 0.017563,0.169652 l 1.0342724,1.045217 c 0.043606,0.04393 0.1112612,0.04755 0.1639224,0.0156 l 1.957312,-1.199269 c 0.3839999,0.223546 0.984668,0.403397 1.4226124,0.522608 l 0.4585926,2.213285 C 9.6086653,18.954699 9.6594503,19 9.722771,19 h 0.770826 0.770825 c 0.06333,0 0.114105,-0.0453 0.126846,-0.109201 l 0.458592,-2.213285 c 0.437945,-0.119211 1.038614,-0.299062 1.422612,-0.522608 l 1.957312,1.199268 c 0.05266,0.03195 0.120319,0.02833 0.163923,-0.0156 l 1.034272,-1.045217 c 0.04491,-0.04523 0.05241,-0.115738 0.01757,-0.169652 l -1.040126,-1.597076 -0.128797,0.0195 -0.729845,-1.068616 c -0.745428,1.561485 -2.321859,2.556557 -4.053177,2.55844 -2.4831598,0 -4.4961583,-2.011527 -4.4961583,-4.49287 0.00143,-1.7054192 0.9690139,-3.2629984 2.4978586,-4.0209624 V 6.5412553 C 8.2103094,6.6362067 7.9302756,6.7433757 7.7147213,6.8688605 L 5.7574094,5.6695917 c -0.026331,-0.015975 -0.056916,-0.023853 -0.085864,-0.02145 z"
         class="ColorScheme-Text"
         id="path10" />
    </g>
  </g>
  <g
     id="start-here-kde"
     transform="translate(37,3)">
    <rect
       style="opacity:0.00100002;vector-effect:none;fill:#000000;fill-opacity:1;stroke:none;stroke-width:3.22818;stroke-linecap:round;stroke-linejoin:round;stroke-miterlimit:4;stroke-dasharray:none;stroke-dashoffset:0;stroke-opacity:1"
       y="-3"
       x="-37"
       height="32"
       width="32"
       id="rect860" />
    <g
       transform="translate(-37,-3)"
       id="g4502">
      <path
         style="fill:url(#radialGradient860);fill-opacity:1;stroke-width:1.17098"
         d="M 18.398597,4 13.599064,4.6919656 V 21.227706 l 4.799533,-1.227679 v -6.388408 l 4.799533,7.531266 4.799525,-1.714284 -5.99941,-6.857159 L 28,5.1450908 23.343425,4 18.398597,11.495545 Z M 8.626112,8.484382 c -0.113496,0 -0.226998,0.042101 -0.314034,0.125 L 6.4255448,10.40626 c -0.1740639,0.165795 -0.1321596,0.402636 0,0.600449 l 1.9521542,2.919652 c -0.144634,0.285961 -0.269881,0.580461 -0.374964,0.881693 -0.00469,0.01292 -0.011871,0.02492 -0.016402,0.03798 L 4.4452696,15.596001 C 4.204968,15.646872 4,15.785649 4,16.020112 v 1.122768 1.122765 c 0,0.234463 0.204968,0.373249 0.4452688,0.424113 l 3.5410598,0.75 c 0.00785,0.02212 0.020156,0.04266 0.028123,0.06474 0.102286,0.292621 0.223604,0.578888 0.363246,0.857144 l -1.9521538,2.917415 c -0.1321592,0.197809 -0.1740635,0.434654 0,0.600445 l 1.8865338,1.796879 c 0.174066,0.165794 0.454,0.165794 0.628066,0 l 3.0606404,-1.857145 c 0.300879,0.139379 0.610867,0.260156 0.928031,0.361616 0.02079,0.0069 0.04009,0.01772 0.06088,0.0245 l 0.785074,3.370542 C 13.774776,27.810362 13.973895,28 14.220055,28 h 2.664581 c 0.246165,0 0.391874,-0.195223 0.445271,-0.424105 l 0.785076,-3.473224 c 0.360696,-0.129153 0.71084,-0.2836 1.047561,-0.462048 l 2.987981,2.035714 c 0.174072,0.165796 0.454011,0.165796 0.628068,0 l 1.886535,-1.796879 c 0.174063,-0.165789 0.132158,-0.402638 0,-0.600449 l -1.136601,-1.642856 -0.11952,0.04243 c -0.270278,0.09667 -0.57454,-0.0032 -0.724152,-0.238838 l -1.195179,-1.875018 c -0.995823,2.268799 -3.347592,3.863845 -6.090818,3.863845 -3.644722,0 -6.599348,-2.81421 -6.599348,-6.285719 0,-2.663917 1.743182,-4.935268 4.199586,-5.850458 v -1.252236 l -0.009,0.04021 c -0.0265,0.0083 -0.05086,0.02235 -0.07733,0.03124 -0.31296,0.09896 -0.619018,0.21679 -0.916319,0.352683 L 8.94021,8.609382 C 8.8532,8.526487 8.739681,8.484382 8.62618,8.484382 Z"
         class="ColorScheme-Text"
         id="path10-7" />
    </g>
  </g>
</svg>
