<?xml version="1.0" encoding="UTF-8" standalone="no"?>
<svg
   xmlns:dc="http://purl.org/dc/elements/1.1/"
   xmlns:cc="http://creativecommons.org/ns#"
   xmlns:rdf="http://www.w3.org/1999/02/22-rdf-syntax-ns#"
   xmlns:svg="http://www.w3.org/2000/svg"
   xmlns="http://www.w3.org/2000/svg"
   xmlns:xlink="http://www.w3.org/1999/xlink"
   xmlns:sodipodi="http://sodipodi.sourceforge.net/DTD/sodipodi-0.dtd"
   xmlns:inkscape="http://www.inkscape.org/namespaces/inkscape"
   sodipodi:docname="system.svg"
   inkscape:version="1.0 (4035a4fb49, 2020-05-01)"
   version="1.1"
   width="32"
   height="32"
   id="svg3738">
  <defs
     id="defs8">
    <linearGradient
       id="linearGradient956"
       inkscape:collect="always">
      <stop
         id="stop952"
         offset="0"
         style="stop-color:#008080;stop-opacity:1;" />
      <stop
         id="stop954"
         offset="1"
         style="stop-color:#008080;stop-opacity:0;" />
    </linearGradient>
    <linearGradient
       id="linearGradient940"
       inkscape:collect="always">
      <stop
         id="stop936"
         offset="0"
         style="stop-color:#008080;stop-opacity:1;" />
      <stop
         id="stop938"
         offset="1"
         style="stop-color:#008080;stop-opacity:0;" />
    </linearGradient>
    <linearGradient
       id="linearGradient932"
       inkscape:collect="always">
      <stop
         id="stop928"
         offset="0"
         style="stop-color:#008080;stop-opacity:1;" />
      <stop
         id="stop930"
         offset="1"
         style="stop-color:#008080;stop-opacity:0;" />
    </linearGradient>
    <linearGradient
       id="linearGradient924"
       inkscape:collect="always">
      <stop
         id="stop920"
         offset="0"
         style="stop-color:#008080;stop-opacity:1;" />
      <stop
         id="stop922"
         offset="1"
         style="stop-color:#008080;stop-opacity:0;" />
    </linearGradient>
    <linearGradient
       id="linearGradient916"
       inkscape:collect="always">
      <stop
         id="stop912"
         offset="0"
         style="stop-color:#008080;stop-opacity:1;" />
      <stop
         id="stop914"
         offset="1"
         style="stop-color:#008080;stop-opacity:0;" />
    </linearGradient>
    <linearGradient
       id="linearGradient908"
       inkscape:collect="always">
      <stop
         id="stop904"
         offset="0"
         style="stop-color:#008080;stop-opacity:1;" />
      <stop
         id="stop906"
         offset="1"
         style="stop-color:#008080;stop-opacity:0;" />
    </linearGradient>
    <linearGradient
       id="linearGradient900"
       inkscape:collect="always">
      <stop
         id="stop896"
         offset="0"
         style="stop-color:#008080;stop-opacity:1;" />
      <stop
         id="stop898"
         offset="1"
         style="stop-color:#008080;stop-opacity:0;" />
    </linearGradient>
    <linearGradient
       id="linearGradient892"
       inkscape:collect="always">
      <stop
         id="stop888"
         offset="0"
         style="stop-color:#008080;stop-opacity:1;" />
      <stop
         id="stop890"
         offset="1"
         style="stop-color:#008080;stop-opacity:0;" />
    </linearGradient>
    <linearGradient
       id="linearGradient884"
       inkscape:collect="always">
      <stop
         id="stop880"
         offset="0"
         style="stop-color:#008080;stop-opacity:1;" />
      <stop
         id="stop882"
         offset="1"
         style="stop-color:#008080;stop-opacity:0;" />
    </linearGradient>
    <linearGradient
       inkscape:collect="always"
       id="linearGradient4300-1">
      <stop
         style="stop-color:#8e44ad;stop-opacity:1"
         offset="0"
         id="stop4302-0" />
      <stop
         style="stop-color:#9b59b6;stop-opacity:1"
         offset="1"
         id="stop4304-6" />
    </linearGradient>
    <linearGradient
       id="linearGradient4227"
       inkscape:collect="always">
      <stop
         id="stop4229"
         offset="0"
         style="stop-color:#292c2f;stop-opacity:1" />
      <stop
         id="stop4231"
         offset="1"
         style="stop-color:#000000;stop-opacity:0;" />
    </linearGradient>
    <linearGradient
       id="linearGradient4298"
       inkscape:collect="always">
      <stop
         id="stop4300"
         offset="0"
         style="stop-color:#b985ce;stop-opacity:1" />
      <stop
         id="stop4302"
         offset="1"
         style="stop-color:#e2cdeb;stop-opacity:1" />
    </linearGradient>
    <linearGradient
       inkscape:collect="always"
       id="linearGradient4143">
      <stop
         style="stop-color:#197cf1;stop-opacity:1"
         offset="0"
         id="stop4145" />
      <stop
         style="stop-color:#20bcfa;stop-opacity:1"
         offset="1"
         id="stop4147" />
    </linearGradient>
    <linearGradient
       id="linearGradient4290"
       inkscape:collect="always">
      <stop
         id="stop4292"
         offset="0"
         style="stop-color:#7cbaf8;stop-opacity:1" />
      <stop
         id="stop4326"
         offset="1"
         style="stop-color:#f4fcff;stop-opacity:1" />
    </linearGradient>
    <linearGradient
       gradientTransform="translate(512.99998,529.36219)"
       inkscape:collect="always"
       xlink:href="#linearGradient4227"
       id="linearGradient5159"
       x1="9.0000114"
       y1="9"
       x2="22.999985"
       y2="22.999973"
       gradientUnits="userSpaceOnUse" />
    <linearGradient
       gradientTransform="translate(352.99998,529.36219)"
       inkscape:collect="always"
       xlink:href="#linearGradient4227"
       id="linearGradient5161"
       x1="9"
       y1="8.9999743"
       x2="24.000027"
       y2="24"
       gradientUnits="userSpaceOnUse" />
    <linearGradient
       gradientTransform="matrix(1.0714285,0,0,1.0714285,67.816334,-24.421341)"
       y2="517.79797"
       x2="400.57144"
       y1="545.79797"
       x1="400.57144"
       gradientUnits="userSpaceOnUse"
       id="linearGradient5163"
       xlink:href="#linearGradient4143"
       inkscape:collect="always" />
    <linearGradient
       gradientTransform="translate(480.99998,529.36219)"
       inkscape:collect="always"
       xlink:href="#linearGradient4227"
       id="linearGradient5165"
       x1="9.0000114"
       y1="8.9999743"
       x2="23.000042"
       y2="23.000006"
       gradientUnits="userSpaceOnUse" />
    <linearGradient
       y2="588.90179"
       x2="579.88287"
       y1="604.90179"
       x1="579.88287"
       gradientTransform="translate(-403.88286,-580.90177)"
       gradientUnits="userSpaceOnUse"
       id="linearGradient5167"
       xlink:href="#linearGradient4290"
       inkscape:collect="always" />
    <linearGradient
       gradientTransform="translate(384.99998,529.36219)"
       inkscape:collect="always"
       xlink:href="#linearGradient4227"
       id="linearGradient5169"
       x1="9.0000114"
       y1="8"
       x2="25.000011"
       y2="24"
       gradientUnits="userSpaceOnUse" />
    <linearGradient
       gradientTransform="matrix(1.0714285,0,0,1.0714285,131.81633,-24.421341)"
       inkscape:collect="always"
       xlink:href="#linearGradient4143"
       id="linearGradient5171"
       x1="400.57144"
       y1="545.79797"
       x2="400.57144"
       y2="517.79797"
       gradientUnits="userSpaceOnUse" />
    <linearGradient
       gradientTransform="translate(544.99998,529.36219)"
       inkscape:collect="always"
       xlink:href="#linearGradient4227"
       id="linearGradient5173"
       x1="9"
       y1="8.9999743"
       x2="25"
       y2="24.999973"
       gradientUnits="userSpaceOnUse" />
    <linearGradient
       gradientTransform="translate(544.99998,529.36219)"
       inkscape:collect="always"
       xlink:href="#linearGradient4290"
       id="linearGradient5175"
       x1="16"
       y1="22.999973"
       x2="16"
       y2="9"
       gradientUnits="userSpaceOnUse" />
    <linearGradient
       gradientUnits="userSpaceOnUse"
       y2="22.999989"
       x2="23"
       y1="9"
       x1="9.0000114"
       id="linearGradient5177"
       xlink:href="#linearGradient4227"
       inkscape:collect="always"
       gradientTransform="translate(448.99996,529.3622)" />
    <linearGradient
       gradientTransform="matrix(1.0714285,0,0,1.0714285,-92.183666,-24.421342)"
       inkscape:collect="always"
       xlink:href="#linearGradient4300-1"
       id="linearGradient5179"
       x1="400.57144"
       y1="545.79797"
       x2="400.57144"
       y2="517.79797"
       gradientUnits="userSpaceOnUse" />
    <linearGradient
       gradientTransform="translate(320.99998,529.36219)"
       inkscape:collect="always"
       xlink:href="#linearGradient4227"
       id="linearGradient5181"
       x1="9"
       y1="8.9999743"
       x2="24.000027"
       y2="24"
       gradientUnits="userSpaceOnUse" />
    <linearGradient
       gradientTransform="translate(320.99998,529.36219)"
       inkscape:collect="always"
       xlink:href="#linearGradient4298"
       id="linearGradient5183"
       x1="16"
       y1="22.999973"
       x2="16"
       y2="8.9999743"
       gradientUnits="userSpaceOnUse" />
    <clipPath
       clipPathUnits="userSpaceOnUse"
       id="clipPath3824-3-5">
      <path
         style="color:#000000;opacity:0.58108;fill:#ff0000"
         d="m 205,183.36 v 33 h 27 v -33 z m 12.562,4.4062 1.6094,1.5781 4.6875,4.6875 0.64063,0.67188 -0.64063,0.67187 -4.4219,4.4219 v 0.125 l 4.4219,4.4219 0.64063,0.67188 -0.64063,0.67187 -4.6875,4.6875 -1.6094,1.5781 v -2.25 -8.0312 l -4.0156,4.0156 -1.3438,-1.3438 4.4844,-4.4844 -4.4844,-4.4844 1.3438,-1.3438 4.0156,4.0156 v -8.0312 -2.25 z m 1.875,4.5312 v 4.8125 l 2.4062,-2.4062 -2.4062,-2.4062 z m 0,10.312 v 4.8125 l 2.4062,-2.4062 -2.4062,-2.4062 z"
         id="path3826-8-9"
         inkscape:connector-curvature="0" />
    </clipPath>
    <radialGradient
       gradientUnits="userSpaceOnUse"
       r="11"
       fy="12"
       fx="12"
       cy="12"
       cx="12"
       id="radialGradient886"
       xlink:href="#linearGradient884"
       inkscape:collect="always"
       gradientTransform="matrix(1.1818182,0,0,1.1818182,1.8181818,1.8181818)" />
    <radialGradient
       gradientUnits="userSpaceOnUse"
       r="11"
       fy="12"
       fx="42"
       cy="12"
       cx="42"
       id="radialGradient894"
       xlink:href="#linearGradient892"
       inkscape:collect="always"
       gradientTransform="matrix(0.99715901,0,0,0.99715901,8.5380618,1.5340909)" />
    <radialGradient
       gradientUnits="userSpaceOnUse"
       r="11"
       fy="12"
       fx="72"
       cy="12"
       cx="72"
       id="radialGradient902"
       xlink:href="#linearGradient900"
       inkscape:collect="always"
       gradientTransform="matrix(1.1818184,0,0,1.1818184,-9.090907,1.8181818)" />
    <radialGradient
       gradientUnits="userSpaceOnUse"
       r="11"
       fy="12"
       fx="102"
       cy="12"
       cx="102"
       id="radialGradient910"
       xlink:href="#linearGradient908"
       inkscape:collect="always"
       gradientTransform="matrix(1.181818,0,0,1.181818,-14.545465,1.8181818)" />
    <radialGradient
       gradientUnits="userSpaceOnUse"
       r="11"
       fy="12"
       fx="132"
       cy="12"
       cx="132"
       id="radialGradient918"
       xlink:href="#linearGradient916"
       inkscape:collect="always"
       gradientTransform="matrix(1.1818183,0,0,1.1818183,-20.000003,1.8181818)" />
    <radialGradient
       gradientUnits="userSpaceOnUse"
       r="11"
       fy="12"
       fx="162"
       cy="12"
       cx="162"
       id="radialGradient926"
       xlink:href="#linearGradient924"
       inkscape:collect="always"
       gradientTransform="matrix(1.1818188,0,0,1.1818188,-25.454547,1.8181818)" />
    <radialGradient
       gradientUnits="userSpaceOnUse"
       r="11"
       fy="12"
       fx="192"
       cy="12"
       cx="192"
       id="radialGradient934"
       xlink:href="#linearGradient932"
       inkscape:collect="always"
       gradientTransform="matrix(1.1818188,0,0,1.1818188,-30.909093,1.8181818)" />
    <radialGradient
       gradientUnits="userSpaceOnUse"
       r="11"
       fy="12"
       fx="222"
       cy="12"
       cx="222"
       id="radialGradient942"
       xlink:href="#linearGradient940"
       inkscape:collect="always"
       gradientTransform="matrix(1.1818188,0,0,1.1818188,-36.363642,1.8181818)" />
    <radialGradient
       gradientUnits="userSpaceOnUse"
       r="11"
       fy="12"
       fx="282"
       cy="12"
       cx="282"
       id="radialGradient958"
       xlink:href="#linearGradient956"
       inkscape:collect="always"
       gradientTransform="matrix(1.1818186,0,0,1.1818186,-47.272734,1.8181818)" />
  </defs>
  <sodipodi:namedview
     inkscape:document-rotation="0"
     inkscape:lockguides="true"
     inkscape:snap-smooth-nodes="true"
     inkscape:object-paths="true"
     inkscape:snap-center="false"
     inkscape:snap-page="false"
     inkscape:bbox-nodes="false"
     inkscape:snap-bbox-midpoints="false"
     inkscape:snap-object-midpoints="false"
     inkscape:snap-text-baseline="true"
     inkscape:snap-global="true"
     inkscape:object-nodes="true"
     inkscape:snap-intersection-paths="true"
     inkscape:snap-bbox="true"
     inkscape:guide-bbox="true"
     showguides="false"
     inkscape:snap-to-guides="true"
     inkscape:snap-grids="true"
     inkscape:current-layer="svg3738"
     inkscape:window-maximized="1"
     inkscape:window-y="0"
     inkscape:window-x="0"
     inkscape:cy="17.531256"
     inkscape:cx="236.79329"
     inkscape:zoom="2.4305918"
     showgrid="false"
     id="namedview6"
     inkscape:window-height="1023"
     inkscape:window-width="1920"
     inkscape:pageshadow="2"
     inkscape:pageopacity="0.58823529"
     guidetolerance="10"
     gridtolerance="10"
     objecttolerance="10"
     borderopacity="1"
     bordercolor="#000000"
     pagecolor="#ffffff">
    <inkscape:grid
       snapvisiblegridlinesonly="true"
       enabled="true"
       visible="true"
       empspacing="5"
       id="grid2985"
       type="xygrid"
       originx="0"
       originy="0" />
  </sodipodi:namedview>
  <metadata
     id="metadata13">
    <rdf:RDF>
      <cc:Work
         rdf:about="">
        <dc:format>image/svg+xml</dc:format>
        <dc:type
           rdf:resource="http://purl.org/dc/dcmitype/StillImage" />
        <dc:title />
      </cc:Work>
    </rdf:RDF>
  </metadata>
  <path
     transform="matrix(0.53333334,0,0,0.53333334,71.46667,-94.592006)"
     clip-path="url(#clipPath3824-3-5)"
     d="m 218,184.86 c -9,0 -10,0 -10,6 v 18 c 0,6 1,6 10,6 h 1 c 9,0 10,0 10,-6 v -18 c 0,-6 -1,-6 -10,-6 z"
     style="display:none;fill:#cccccc"
     id="path5169"
     inkscape:connector-curvature="0" />
  <text
     id="text5604"
     y="-3"
     x="253"
     style="font-style:normal;font-weight:normal;line-height:0%;font-family:sans-serif;letter-spacing:0px;word-spacing:0px;white-space:pre;inline-size:0;fill:#000000;fill-opacity:1;stroke:none;stroke-width:1px;stroke-linecap:butt;stroke-linejoin:miter;stroke-opacity:1"
     xml:space="preserve"
     transform="translate(124.10024,-0.6)"><tspan
       style="font-size:40px;line-height:1.25"
       y="-3"
       x="253"
       id="tspan5606"> </tspan></text>
  <text
     transform="translate(305.2)"
     id="text5604-1"
     y="-3.5999994"
     x="71.900383"
     style="font-style:normal;font-weight:normal;line-height:0%;font-family:sans-serif;letter-spacing:0px;word-spacing:0px;white-space:pre;inline-size:4.55062;fill:#000000;fill-opacity:1;stroke:none;stroke-width:1px;stroke-linecap:butt;stroke-linejoin:miter;stroke-opacity:1"
     xml:space="preserve"><tspan
       x="71.900383"
       y="-3.5999994"><tspan
         style="font-size:40px;line-height:1.25"> </tspan></tspan></text>
  <g
     id="system-log-out"
     transform="matrix(1.1851852,0,0,1.1851852,-5.55556,0)">
    <rect
       style="color:#000000;display:inline;overflow:visible;visibility:visible;opacity:0.01;fill:#000000;fill-opacity:0.00392157;stroke:none;stroke-width:5.62498;marker:none;enable-background:accumulate"
       id="rect4570-7"
       width="27"
       height="27"
       x="36.918743"
       y="0" />
    <path
       id="rect4747-6-8"
       style="color:#000000;display:inline;overflow:visible;visibility:visible;fill:url(#radialGradient894);fill-opacity:1;fill-rule:evenodd;stroke:none;stroke-width:8.97438;marker:none;enable-background:accumulate"
       d="m 42.441472,2.53125 h 15.954541 c 1.994317,0 2.99148,0.9971587 2.99148,2.991477 V 21.47727 c 0,1.994317 -0.997163,2.99148 -2.99148,2.99148 H 42.441472 c -1.994316,0 -2.991479,-0.997163 -2.991479,-2.99148 V 5.522727 c 0,-1.9943183 0.997163,-2.991477 2.991479,-2.991477 z m 12.158449,5.4992292 c -2.470477,-1.8969038 -5.914389,-1.8969038 -8.384862,0 -3.01013,2.3112728 -3.58326,6.6526238 -1.273519,9.6647278 2.309757,3.012089 6.648261,3.585599 9.658381,1.274349 l -1.143906,-1.494255 c -2.20442,1.692616 -5.335318,1.28113 -7.026831,-0.924753 -1.691515,-2.205873 -1.274661,-5.33319 0.929781,-7.0258107 1.802915,-1.3843428 4.294123,-1.3899836 6.09705,-0.0055 L 54.599921,8.030624 Z m 0.414155,2.5834968 c -0.109217,0.06559 -0.164772,0.944968 -0.191276,1.946454 h -3.15689 v 1.879139 h 3.15689 c 0.02648,1.001487 0.08207,1.880885 0.191276,1.946454 0.288418,0.173168 4.806484,-2.539704 4.806484,-2.886023 0,-0.346337 -4.518066,-3.059192 -4.806484,-2.886024 z"
       inkscape:connector-curvature="0" />
  </g>
  <g
     transform="translate(17)"
     id="system-reboot">
    <rect
       style="color:#000000;display:inline;overflow:visible;visibility:visible;opacity:0.01;fill:#000000;fill-opacity:0.00392157;stroke:none;stroke-width:6.66662;marker:none;enable-background:accumulate"
       id="rect4570-72"
       width="32"
       height="32"
       x="60"
       y="0" />
    <path
       id="path4984-0-94-2"
       style="color:#000000;display:inline;overflow:visible;visibility:visible;fill:url(#radialGradient902);fill-opacity:1;fill-rule:evenodd;stroke:none;stroke-width:3.54545;marker:none;enable-background:accumulate"
       d="m 66.545455,3 h 18.90909 C 87.818182,3 89,4.1818182 89,6.5454545 V 25.454545 C 89,27.818182 87.818182,29 85.454545,29 H 66.545455 C 64.181818,29 63,27.818182 63,25.454545 V 6.5454545 C 63,4.1818182 64.181818,3 66.545455,3 Z m 9.440067,4.8350995 c -2.090235,-9.29e-4 -4.180501,0.7934453 -5.769113,2.3849155 -3.17699,3.182861 -3.178596,8.374099 0,11.558161 3.178831,3.183938 8.36099,3.188402 11.538224,0.0056 L 80.180415,20.20409 c -2.326521,2.330442 -6.060416,2.329922 -8.387979,-9.29e-4 -2.327496,-2.331575 -2.328625,-6.072031 -0.0016,-8.402484 2.253657,-2.2574511 5.823951,-2.3203901 8.161269,-0.203126 -0.931478,0.973505 -1.732996,1.874924 -1.692102,2.038509 0.102977,0.411787 6.55388,2.024522 6.862721,1.715676 C 85.431338,15.042774 83.818594,8.5900339 83.406809,8.4870739 83.252692,8.4486297 82.436522,9.1702987 81.533344,10.025031 79.973193,8.5724405 77.982058,7.836985 75.985464,7.836 Z"
       inkscape:connector-curvature="0" />
  </g>
  <g
     id="system-shutdown">
    <rect
       style="color:#000000;display:inline;overflow:visible;visibility:visible;opacity:0.01;fill:#000000;fill-opacity:0.00392157;stroke:none;stroke-width:6.6667;marker:none;enable-background:accumulate"
       id="rect4570"
       width="32"
       height="32"
       x="0"
       y="0" />
    <path
       id="rect4747-1-3-0"
       style="color:#000000;display:inline;overflow:visible;visibility:visible;fill:url(#radialGradient886);fill-opacity:1;fill-rule:evenodd;stroke:none;stroke-width:10.6363;marker:none;enable-background:accumulate"
       d="m 14.885752,6.342875 h 2.228568 v 8.171427 h -2.228568 z m -2.970857,2.603353 c -1.242807,0.716272 -2.277781,1.749419 -2.9953186,2.990051 -2.2510412,3.892041 -0.903599,8.898853 2.9953186,11.145949 3.898926,2.247068 8.914547,0.902004 11.16559,-2.990057 2.251045,-3.892059 0.903599,-8.898856 -2.995322,-11.145943 l -1.109866,1.928847 c 2.854948,1.645406 3.821243,5.259249 2.172945,8.109189 -1.648306,2.84992 -5.268514,3.814507 -8.123477,2.1691 -2.854945,-1.645386 -3.8212457,-5.25925 -2.172941,-8.109174 0.521826,-0.902219 1.269111,-1.648205 2.172941,-2.169125 z M 6.5454543,3 H 25.454543 C 27.818178,3 29,4.1818178 29,6.5454543 V 25.454543 C 29,27.818178 27.818178,29 25.454543,29 H 6.5454543 C 4.1818178,29 3,27.818178 3,25.454543 V 6.5454543 C 3,4.1818178 4.1818178,3 6.5454543,3 Z"
       inkscape:connector-curvature="0" />
  </g>
  <g
     transform="translate(63.09999)"
     id="system-lock-screen">
    <rect
       style="color:#000000;display:inline;overflow:visible;visibility:visible;opacity:0.01;fill:#000000;fill-opacity:0.00392157;stroke:none;stroke-width:6.66668;marker:none;enable-background:accumulate"
       id="rect4570-7-5"
       width="32"
       height="32"
       x="150"
       y="0" />
    <path
       id="rect5190-0-1"
       style="color:#000000;text-indent:0;text-transform:none;fill:url(#radialGradient926);fill-opacity:1;fill-rule:evenodd;stroke-width:1.18188;color-rendering:auto;image-rendering:auto;shape-rendering:auto"
       d="m 156.54548,3 h 18.90904 C 177.81812,3 179,4.1818188 179,6.5454548 V 25.454548 C 179,27.818188 177.81812,29 175.45452,29 H 156.54548 C 154.18188,29 153,27.818188 153,25.454548 V 6.5454548 C 153,4.1818188 154.18188,3 156.54548,3 Z m 9.45455,13 c 1.07696,0 1.94999,0.831389 1.94999,1.857156 0,0.68683 -0.39287,1.285129 -0.975,1.606101 v 2.417699 h -1.95 v -2.417699 c -0.58212,-0.320972 -0.975,-0.919271 -0.975,-1.606101 0,-1.025767 0.87303,-1.857156 1.95001,-1.857156 z m 0,-8.3571438 c -2.32674,0 -4.22573,1.8085238 -4.22573,4.0244098 v 2.23074 c -1.95106,0.156635 -2.25698,0.715965 -2.27428,2.751263 v 2.446567 2.444764 c 0.0241,2.793448 0.5535,2.816549 5.1997,2.816549 h 2.6006 c 4.64621,0 5.17603,-0.02324 5.1997,-2.816549 v -2.444764 -2.446567 c -0.0175,-2.035298 -0.32324,-2.594628 -2.27426,-2.751263 v -2.23074 c -9.1e-4,-2.215886 -1.89901,-4.0244098 -4.22573,-4.0244098 z m 0,1.5470188 c 1.45434,0 2.60073,1.092269 2.60073,2.477391 v 2.170909 c -0.39958,-0.0031 -0.81499,-0.0049 -1.30044,-0.0049 h -2.6006 c -0.48478,0 -0.89941,9.27e-4 -1.29867,0.0049 v -2.170909 c 0,-1.385122 1.14463,-2.477391 2.59898,-2.477391 z"
       inkscape:connector-curvature="0" />
  </g>
  <g
     transform="translate(78.7)"
     id="system-suspend">
    <rect
       style="color:#000000;display:inline;overflow:visible;visibility:visible;opacity:0.01;fill:#000000;fill-opacity:0.00392157;stroke:none;stroke-width:6.66668;marker:none;enable-background:accumulate"
       id="rect4570-72-4"
       width="32"
       height="32"
       x="180"
       y="0" />
    <path
       id="path13-9-1-11-0"
       style="color:#000000;font-style:normal;font-variant:normal;font-weight:normal;font-stretch:normal;font-size:xx-small;line-height:normal;font-family:sans-serif;-inkscape-font-specification:sans-serif;text-indent:0;text-align:start;text-decoration:none;text-decoration-line:none;letter-spacing:normal;word-spacing:normal;text-transform:none;writing-mode:lr-tb;direction:ltr;baseline-shift:baseline;text-anchor:start;clip-rule:nonzero;display:inline;overflow:visible;visibility:visible;color-interpolation:sRGB;color-interpolation-filters:linearRGB;fill:url(#radialGradient934);fill-opacity:1;fill-rule:evenodd;stroke:none;stroke-width:12.3214;marker:none;color-rendering:auto;image-rendering:auto;shape-rendering:auto;text-rendering:auto;enable-background:accumulate"
       d="m 198.09915,8.1236064 c -1.38519,-0.37232 -2.84767,-0.3736006 -4.2322,-0.00362 -4.34382,1.16038 -6.93143,5.6534926 -5.76337,9.9993846 1.16793,4.345884 5.66566,6.94135 10.00948,5.780986 4.34379,-1.16038 6.93143,-5.653507 5.76334,-9.999387 l -2.14865,0.57909 c 0.8553,3.182239 -1.01678,6.420889 -4.19748,7.270569 -3.18088,0.849668 -6.42275,-1.028138 -7.27804,-4.210369 -0.85529,-3.182223 1.01678,-6.420885 4.19759,-7.270546 1.00691,-0.268989 2.06275,-0.268079 3.07029,0.0028 l 0.57904,-2.1487056 z m -1.94478,3.6655176 c 0.44142,0.05665 0.75984,0.328287 0.75254,0.642432 l 0.0224,2.639886 h 2.78573 c 1.24095,-0.01269 1.18646,1.869352 -0.0541,1.857057 h -3.67064 c -0.50679,-3.1e-5 -0.9176,-0.28763 -0.91765,-0.642416 v -3.854527 c -0.008,-0.407717 0.51755,-0.718901 1.08969,-0.642432 z M 186.54548,3 h 18.90904 C 207.81812,3 209,4.1818188 209,6.5454548 V 25.454548 C 209,27.818188 207.81812,29 205.45452,29 H 186.54548 C 184.18188,29 183,27.818188 183,25.454548 V 6.5454548 C 183,4.1818188 184.18188,3 186.54548,3 Z"
       inkscape:connector-curvature="0" />
  </g>
  <g
     transform="translate(95.2)"
     id="system-suspend-hibernate">
    <rect
       style="color:#000000;display:inline;overflow:visible;visibility:visible;opacity:0.01;fill:#000000;fill-opacity:0.00392157;stroke:none;stroke-width:6.66661;marker:none;enable-background:accumulate"
       id="rect4570-7-1-0"
       width="32"
       height="32"
       x="210"
       y="0" />
    <path
       id="path13-9-1-5-0-0"
       style="color:#000000;font-style:normal;font-variant:normal;font-weight:normal;font-stretch:normal;font-size:xx-small;line-height:normal;font-family:sans-serif;-inkscape-font-specification:sans-serif;text-indent:0;text-align:start;text-decoration:none;text-decoration-line:none;letter-spacing:normal;word-spacing:normal;text-transform:none;writing-mode:lr-tb;direction:ltr;baseline-shift:baseline;text-anchor:start;clip-rule:nonzero;display:inline;overflow:visible;visibility:visible;color-interpolation:sRGB;color-interpolation-filters:linearRGB;fill:url(#radialGradient942);fill-opacity:1;fill-rule:evenodd;stroke:none;stroke-width:12.3214;marker:none;color-rendering:auto;image-rendering:auto;shape-rendering:auto;text-rendering:auto;enable-background:accumulate"
       d="m 228.09913,8.1236066 c -1.38515,-0.37232 -2.84765,-0.3736006 -4.23216,-0.0036 -4.34384,1.16038 -6.93143,5.6534914 -5.76339,9.9993824 1.16793,4.345884 5.66567,6.941352 10.00951,5.780988 4.34376,-1.16038 6.93142,-5.653505 5.76329,-9.999385 l -2.14864,0.579088 c 0.8553,3.182238 -1.01677,6.420891 -4.19745,7.270571 -3.18091,0.849668 -6.42279,-1.028142 -7.27808,-4.210371 -0.85529,-3.182221 1.01678,-6.420885 4.19764,-7.270546 1.00688,-0.268989 2.06272,-0.268079 3.07028,0.0028 l 0.579,-2.1487052 z m -1.94478,3.6655164 c 0.44144,0.05665 0.75987,0.328288 0.75258,0.642431 l 0.0224,2.63989 h 2.78577 c 1.24095,-0.01269 1.18644,1.869348 -0.0541,1.857055 h -3.67067 c -0.50678,-3.1e-5 -0.9176,-0.28763 -0.91764,-0.642418 v -3.854527 c -0.008,-0.407715 0.51756,-0.718899 1.08968,-0.642431 z M 231.10714,9.5 c -0.76929,0 -1.39277,0.623591 -1.39277,1.39282 0,0.769229 0.62348,1.392811 1.39277,1.392811 0.76921,0 1.39288,-0.623582 1.39288,-1.392811 0,-0.769238 -0.62367,-1.39282 -1.39288,-1.39282 z M 216.5455,3 h 18.909 C 237.8181,3 239,4.181819 239,6.545455 V 25.45455 C 239,27.81819 237.8181,29 235.4545,29 h -18.909 C 214.1819,29 213,27.81819 213,25.45455 V 6.545455 C 213,4.181819 214.1819,3 216.5455,3 Z"
       inkscape:connector-curvature="0" />
  </g>
  <g
     transform="translate(46.1)"
     id="system-users">
    <rect
       style="color:#000000;display:inline;overflow:visible;visibility:visible;opacity:0.01;fill:#000000;fill-opacity:0.00392157;stroke:none;stroke-width:6.66662;marker:none;enable-background:accumulate"
       id="rect4570-6"
       width="32"
       height="32"
       x="120"
       y="0" />
    <path
       id="path9180-6-2"
       style="color:#bebebe;fill:url(#radialGradient918);fill-opacity:1;fill-rule:evenodd;stroke-width:1.1818"
       d="m 134.41768,9.7756 c -0.006,4.074142 -6.11485,4.074142 -6.12243,0 -0.006,-4.089355 6.13004,-4.089355 6.12243,0 z m -0.68831,3.168559 c -0.65501,0.636297 -1.42918,0.924775 -2.37218,0.924775 -0.94305,0 -1.72079,-0.296447 -2.37584,-0.932736 -1.03012,0.370714 -2.262,1.314088 -2.26345,2.961708 l -0.003,3.073288 c 0,0.557152 0.41518,1.008212 0.9287,1.008212 h 7.60813 c 0.0826,-0.524274 0.34697,-0.95866 0.74901,-1.326582 v -2.75517 c 0,-1.415072 -1.02368,-2.608057 -2.27057,-2.965715 z m 9.97402,2.137757 c -0.006,4.074146 -6.11481,4.074146 -6.12243,0 -0.006,-4.089349 6.13002,-4.089349 6.12243,0 z m -0.68832,3.168558 c -0.65494,0.63629 -1.42914,0.924792 -2.37223,0.924792 -0.94296,0 -1.7207,-0.296468 -2.37576,-0.932758 -1.0302,0.370728 -2.262,1.31409 -2.2635,2.961718 l -0.003,3.073288 c 0,0.557164 0.41527,1.008204 0.92856,1.008204 h 7.42853 c 0.51449,0 0.92857,-0.455144 0.92857,-1.020464 v -3.061338 c 0,-1.415066 -1.02348,-2.60806 -2.27058,-2.965706 z M 126.54545,3 h 18.9091 C 147.8182,3 149,4.181818 149,6.5454545 V 25.454545 C 149,27.81818 147.8182,29 145.45455,29 h -18.9091 C 124.1818,29 123,27.81818 123,25.454545 V 6.5454545 C 123,4.181818 124.1818,3 126.54545,3 Z"
       inkscape:connector-curvature="0" />
  </g>
  <g
     transform="translate(33.29999)"
     id="system-switch-user">
    <rect
       style="color:#000000;display:inline;overflow:visible;visibility:visible;opacity:0.01;fill:#000000;fill-opacity:0.00392157;stroke:none;stroke-width:6.66659;marker:none;enable-background:accumulate"
       id="rect4570-7-1"
       width="32"
       height="32"
       x="90"
       y="0" />
    <path
       id="path4106-3-4"
       style="color:#000000;display:inline;overflow:visible;visibility:visible;fill:url(#radialGradient910);fill-opacity:1;fill-rule:evenodd;stroke:none;stroke-width:3.54542;marker:none;enable-background:accumulate"
       d="M 96.545458,3 H 115.45458 C 117.81824,3 119,4.1818176 119,6.5454542 V 25.454542 C 119,27.818176 117.81824,29 115.45458,29 H 96.545458 C 94.181824,29 93,27.818176 93,25.454542 V 6.5454542 C 93,4.1818176 94.181824,3 96.545458,3 Z m 5.326882,12.46477 c -0.6551,0.636273 -1.42929,0.92479 -2.37231,0.92479 -0.942969,0 -1.720776,-0.296488 -2.375811,-0.932768 -1.03015,0.370718 -2.262,1.314084 -2.263465,2.96172 l -0.0032,3.073288 C 94.85733,22.048968 95.272526,22.5 95.785892,22.5 h 7.428558 c 0.51443,0 0.92853,-0.455134 0.92853,-1.020468 V 18.41818 c 0,-1.41504 -1.02347,-2.60804 -2.27056,-2.96568 z m 0.68817,-3.168569 c -0.006,4.075659 -6.116296,4.075659 -6.122395,0 -0.0064,-4.0878436 6.128585,-4.0878436 6.122395,0 z m 6.67312,-1.787828 c -0.30537,-0.179503 -5.0908,2.633447 -5.0908,2.99246 0,0.35901 4.78543,3.170167 5.0908,2.990664 0.10887,-0.06411 0.1648,-0.889305 0.19591,-1.84808 h 4.71363 v -2.286958 h -4.71363 c -0.0315,-0.95842 -0.087,-1.783913 -0.19591,-1.848086 z m 2.81838,5.999453 c -0.10895,0.06411 -0.16467,0.891108 -0.19579,1.84987 h -4.71356 v 2.285156 h 4.71356 c 0.0317,0.958768 0.0872,1.783896 0.19579,1.848072 0.30557,0.179506 5.09082,-2.631626 5.09082,-2.990654 0,-0.359018 -4.78525,-3.171958 -5.09082,-2.992444 z"
       inkscape:connector-curvature="0" />
  </g>
  <g
     id="system-save-session" />
  <g
     id="system-search"
     transform="translate(79.651,-0.0646722)">
    <rect
       style="color:#000000;display:inline;overflow:visible;visibility:visible;opacity:0.01;fill:#000000;fill-opacity:0.00392157;stroke:none;stroke-width:6.6667;marker:none;enable-background:accumulate"
       id="rect4570-7-1-0-7"
       width="32"
       height="32"
       x="270"
       y="0" />
    <path
       id="rect5786-0-3"
       style="opacity:1;fill:url(#radialGradient958);fill-opacity:1;fill-rule:evenodd;stroke:none;stroke-width:1.18184;stroke-miterlimit:4;stroke-dasharray:none;stroke-opacity:1"
       d="m 284.14285,8.5714286 c 3.08666,0 5.57147,2.4848564 5.57147,5.5714224 0,3.086579 -2.48481,5.571432 -5.57147,5.571432 -3.08653,0 -5.57135,-2.484853 -5.57135,-5.571432 0,-3.086566 2.48482,-5.5714224 5.57135,-5.5714224 z m 0,-1.8571436 c -4.11534,0 -7.42853,3.313144 -7.42853,7.428566 0,4.115432 3.31319,7.428579 7.42853,7.428579 1.83348,0 3.50408,-0.660676 4.79703,-1.753765 l 0.83612,0.836075 c -0.0959,0.408783 0.0143,0.864317 0.31554,1.158905 l 2.84745,2.847372 c 0.83042,0.881942 1.00944,0.762273 1.74647,0.02544 0.73695,-0.736969 0.856,-0.863246 -0.027,-1.746512 l -2.84557,-2.847376 c -0.22717,-0.23311 -0.55052,-0.369519 -0.87592,-0.36816 -0.0983,5.61e-4 -0.19389,0.02198 -0.28836,0.04711 l -0.83068,-0.830634 c 1.09316,-1.293012 1.7538,-2.963678 1.7538,-4.797085 0,-4.115423 -3.31317,-7.4285668 -7.42858,-7.4285668 z M 276.54546,3 h 18.90908 C 297.81816,3 299,4.1818194 299,6.5454546 V 25.454546 C 299,27.818182 297.81816,29 295.45454,29 H 276.54546 C 274.18184,29 273,27.818182 273,25.454546 V 6.5454546 C 273,4.1818194 274.18184,3 276.54546,3 Z"
       inkscape:connector-curvature="0" />
  </g>
</svg>
