<?xml version="1.0" encoding="UTF-8" standalone="no"?>
<svg
   width="32.016949"
   height="32.152542"
   version="1.1"
   style="enable-background:new"
   id="svg43"
   sodipodi:docname="view.svg"
   inkscape:version="1.1.2 (0a00cf5339, 2022-02-04)"
   xmlns:inkscape="http://www.inkscape.org/namespaces/inkscape"
   xmlns:sodipodi="http://sodipodi.sourceforge.net/DTD/sodipodi-0.dtd"
   xmlns:xlink="http://www.w3.org/1999/xlink"
   xmlns="http://www.w3.org/2000/svg"
   xmlns:svg="http://www.w3.org/2000/svg"
   xmlns:rdf="http://www.w3.org/1999/02/22-rdf-syntax-ns#"
   xmlns:cc="http://creativecommons.org/ns#"
   xmlns:dc="http://purl.org/dc/elements/1.1/">
  <metadata
     id="metadata47">
    <rdf:RDF>
      <cc:Work
         rdf:about="">
        <dc:format>image/svg+xml</dc:format>
        <dc:type
           rdf:resource="http://purl.org/dc/dcmitype/StillImage" />
      </cc:Work>
    </rdf:RDF>
  </metadata>
  <sodipodi:namedview
     pagecolor="#ffffff"
     bordercolor="#000000"
     borderopacity="1"
     objecttolerance="10"
     gridtolerance="10"
     guidetolerance="10"
     inkscape:pageopacity="0"
     inkscape:pageshadow="2"
     inkscape:window-width="1920"
     inkscape:window-height="1015"
     id="namedview45"
     showgrid="false"
     inkscape:zoom="7.375"
     inkscape:cx="25.220339"
     inkscape:cy="17.288136"
     inkscape:window-x="0"
     inkscape:window-y="0"
     inkscape:window-maximized="1"
     inkscape:current-layer="svg43"
     inkscape:lockguides="false"
     inkscape:document-rotation="0"
     inkscape:pagecheckerboard="0"
     inkscape:showpageshadow="false">
    <inkscape:grid
       type="xygrid"
       id="grid835"
       originx="0.01694915"
       originy="0" />
  </sodipodi:namedview>
  <defs
     id="defs4">
    <linearGradient
       inkscape:collect="always"
       id="linearGradient960">
      <stop
         style="stop-color:#008080;stop-opacity:1;"
         offset="0"
         id="stop956" />
      <stop
         style="stop-color:#008080;stop-opacity:0;"
         offset="1"
         id="stop958" />
    </linearGradient>
    <linearGradient
       inkscape:collect="always"
       id="linearGradient921">
      <stop
         style="stop-color:#008080;stop-opacity:1"
         offset="0"
         id="stop917" />
      <stop
         style="stop-color:#008080;stop-opacity:1"
         offset="1"
         id="stop919" />
    </linearGradient>
    <linearGradient
       id="linearGradient5606"
       paint="solid">
      <stop
         id="stop5608"
         offset="0"
         style="stop-color:#000000" />
    </linearGradient>
    <radialGradient
       inkscape:collect="always"
       xlink:href="#linearGradient921"
       id="radialGradient923"
       cx="16"
       cy="16"
       fx="16"
       fy="16"
       r="14"
       gradientUnits="userSpaceOnUse" />
    <radialGradient
       inkscape:collect="always"
       xlink:href="#linearGradient960"
       id="radialGradient962"
       cx="16"
       cy="16"
       fx="16"
       fy="16"
       r="11"
       gradientUnits="userSpaceOnUse"
       gradientTransform="matrix(1.4545456,0,0,1.4545456,-7.289676,-7.1201896)" />
    <linearGradient
       inkscape:collect="always"
       xlink:href="#linearGradient960"
       id="linearGradient1023"
       x1="1.5"
       y1="16"
       x2="30.5"
       y2="16"
       gradientUnits="userSpaceOnUse" />
  </defs>
  <g
     id="layer12-0"
     transform="translate(-453.04476,-24.01758)" />
  <g
     id="view-history"
     transform="translate(0.01694915)">
    <rect
       width="32"
       height="32"
       x="0"
       y="0"
       style="opacity:0.00100002"
       id="rect14" />
    <path
       style="opacity:0;fill:url(#linearGradient1023);fill-opacity:1;stroke:url(#radialGradient923)"
       d="M 16,2.0000001 C 8.2752851,2.0000001 2,8.2752829 2,16 2,23.724717 8.2752851,30.000002 16,30 23.724715,30 30.000007,23.724717 30,16 30,8.2752829 23.724715,2.0000001 16,2.0000001 Z"
       id="path18" />
    <path
       style="fill:url(#radialGradient962);fill-opacity:1;stroke-width:1.45455"
       d="m 15.983052,0.15254237 c -8.8282522,0 -16.00000115,7.17175073 -16.00000115,15.99999863 0,8.82825 7.17174895,16.000002 16.00000115,16.000001 8.828249,0 16.000003,-7.171751 15.999999,-16.000001 0,-8.8282479 -7.17175,-15.99999863 -15.999999,-15.99999863 z"
       id="path24"
       inkscape:connector-curvature="0" />
    <path
       style="fill:#141414;fill-opacity:1;stroke-width:1.66667"
       d="m 15.8,11.4 c -2.758824,0 -5,2.241175 -5,5 0,2.758824 2.241176,5 5,5 2.758824,0 5,-2.241176 5,-5 0,-2.758825 -2.241176,-5 -5,-5 z"
       id="path38"
       inkscape:connector-curvature="0" />
  </g>
  <g
     id="view-refresh"
     transform="translate(32.016949,16)">
    <path
       d="M 0,0 H 16 V 16 H 0 Z"
       style="opacity:0;fill:#ff0000"
       id="path6" />
    <path
       d="m 14.425007,9.3276451 c 0.0894,-0.434962 0.134407,-0.879221 0.134407,-1.327557 0,-3.622829 -2.936998,-6.559949 -6.559948,-6.559949 -0.894912,0 -1.770365,0.179293 -2.58503,0.528953 l -0.0859,-0.0228 L 4.528481,0.885976 4.554901,0.777507 C 5.628499,0.264616 6.799455,0 7.999508,0 c 4.418189,0 7.999936,3.5817481 7.999936,7.9999381 0,1.6248529 -0.485985,3.1919439 -1.401406,4.5244439 l -0.116925,0.0025 -2.405139,-3.1968869 0.01522,-0.101593 1.042471,-0.75808 0.10026,0.01532 1.068286,1.4386909 z M 1.697072,6.0754701 1.574364,6.6723451 c -0.0894,0.434963 -0.134411,0.879222 -0.134411,1.327557 0,3.6228289 2.936996,6.5599499 6.559949,6.5599499 0.908039,0 1.796063,-0.184725 2.620764,-0.544521 l 0.0864,0.02268 0.7991,1.05911 -0.0261,0.108228 C 10.396956,15.729485 9.213305,16 7.999938,16 3.581749,16 0,12.418251 0,8.0000621 0,6.3752091 0.485988,4.8081171 1.401409,3.4756171 l 0.116918,-0.0025 2.405139,3.196887 -0.0152,0.101593 -1.042463,0.75808 -0.100266,-0.01532 z"
       id="path2-5"
       style="fill:#00b2b2;fill-opacity:1;stroke-width:0.0308878" />
  </g>
</svg>
