<?xml version="1.0" encoding="UTF-8" standalone="no"?>
<svg
   width="32"
   height="32"
   version="1.1"
   style="enable-background:new"
   id="svg43"
   sodipodi:docname="view.svg"
   inkscape:version="1.1.1 (3bf5ae0d25, 2021-09-20)"
   xmlns:inkscape="http://www.inkscape.org/namespaces/inkscape"
   xmlns:sodipodi="http://sodipodi.sourceforge.net/DTD/sodipodi-0.dtd"
   xmlns:xlink="http://www.w3.org/1999/xlink"
   xmlns="http://www.w3.org/2000/svg"
   xmlns:svg="http://www.w3.org/2000/svg"
   xmlns:rdf="http://www.w3.org/1999/02/22-rdf-syntax-ns#"
   xmlns:cc="http://creativecommons.org/ns#"
   xmlns:dc="http://purl.org/dc/elements/1.1/">
  <metadata
     id="metadata47">
    <rdf:RDF>
      <cc:Work
         rdf:about="">
        <dc:format>image/svg+xml</dc:format>
        <dc:type
           rdf:resource="http://purl.org/dc/dcmitype/StillImage" />
      </cc:Work>
    </rdf:RDF>
  </metadata>
  <sodipodi:namedview
     pagecolor="#ffffff"
     bordercolor="#000000"
     borderopacity="1"
     objecttolerance="10"
     gridtolerance="10"
     guidetolerance="10"
     inkscape:pageopacity="0"
     inkscape:pageshadow="2"
     inkscape:window-width="1920"
     inkscape:window-height="1007"
     id="namedview45"
     showgrid="false"
     inkscape:zoom="7.375"
     inkscape:cx="25.355932"
     inkscape:cy="17.288136"
     inkscape:window-x="0"
     inkscape:window-y="0"
     inkscape:window-maximized="1"
     inkscape:current-layer="svg43"
     inkscape:lockguides="false"
     inkscape:document-rotation="0"
     inkscape:pagecheckerboard="0"
     inkscape:showpageshadow="false">
    <inkscape:grid
       type="xygrid"
       id="grid835" />
  </sodipodi:namedview>
  <defs
     id="defs4">
    <linearGradient
       inkscape:collect="always"
       id="linearGradient960">
      <stop
         style="stop-color:#008080;stop-opacity:1;"
         offset="0"
         id="stop956" />
      <stop
         style="stop-color:#008080;stop-opacity:0;"
         offset="1"
         id="stop958" />
    </linearGradient>
    <linearGradient
       inkscape:collect="always"
       id="linearGradient921">
      <stop
         style="stop-color:#008080;stop-opacity:1"
         offset="0"
         id="stop917" />
      <stop
         style="stop-color:#008080;stop-opacity:1"
         offset="1"
         id="stop919" />
    </linearGradient>
    <linearGradient
       id="linearGradient5606"
       paint="solid">
      <stop
         id="stop5608"
         offset="0"
         style="stop-color:#000000" />
    </linearGradient>
    <radialGradient
       inkscape:collect="always"
       xlink:href="#linearGradient921"
       id="radialGradient923"
       cx="16"
       cy="16"
       fx="16"
       fy="16"
       r="14"
       gradientUnits="userSpaceOnUse" />
    <radialGradient
       inkscape:collect="always"
       xlink:href="#linearGradient960"
       id="radialGradient962"
       cx="16"
       cy="16"
       fx="16"
       fy="16"
       r="11"
       gradientUnits="userSpaceOnUse"
       gradientTransform="matrix(1.4545456,0,0,1.4545456,-7.289676,-7.1201896)" />
    <linearGradient
       inkscape:collect="always"
       xlink:href="#linearGradient960"
       id="linearGradient1023"
       x1="1.5"
       y1="16"
       x2="30.5"
       y2="16"
       gradientUnits="userSpaceOnUse" />
  </defs>
  <g
     id="view-refresh"
     transform="translate(-250.00021,54.000004)">
    <path
       d="m 282.00021,-38.000004 16,0 0,16 -16,0 z"
       style="opacity:0;fill:#ff0000"
       id="path6" />
    <g
       transform="translate(281.97246,-37.000109)"
       style="enable-background:new"
       id="g11">
      <g
         id="layer12-0"
         transform="translate(-485.03396,-41.017475)">
        <path
           d="m 499.06185,49.01758 c 0,3.31371 -2.68629,6 -6,6 -3.28006,0 -5.94034,-2.63316 -5.99414,-5.90039 a 1,1 0 0 1 -0.006,-0.09961 1,1 0 0 1 1,-1 1,1 0 0 1 1,1 c 0,2.20914 1.79086,4 4,4 2.20914,0 4,-1.79086 4,-4 0,-2.20914 -1.79086,-4 -4,-4 l 0,2 -4,-3 4,-3 0,2 c 3.31371,0 6,2.68629 6,6 z"
           style="fill:#cfd8dc"
           id="path8" />
      </g>
    </g>
  </g>
  <g
     id="view-history">
    <rect
       width="32"
       height="32"
       x="0"
       y="0"
       style="opacity:0.00100002"
       id="rect14" />
    <path
       style="opacity:0;fill:url(#linearGradient1023);fill-opacity:1;stroke:url(#radialGradient923)"
       d="M 16,2.0000001 C 8.2752851,2.0000001 2,8.2752829 2,16 2,23.724717 8.2752851,30.000002 16,30 23.724715,30 30.000007,23.724717 30,16 30,8.2752829 23.724715,2.0000001 16,2.0000001 Z"
       id="path18" />
    <path
       style="fill:url(#radialGradient962);fill-opacity:1;stroke-width:1.45455"
       d="m 15.983052,0.15254237 c -8.8282522,0 -16.00000115,7.17175073 -16.00000115,15.99999863 0,8.82825 7.17174895,16.000002 16.00000115,16.000001 8.828249,0 16.000003,-7.171751 15.999999,-16.000001 0,-8.8282479 -7.17175,-15.99999863 -15.999999,-15.99999863 z"
       id="path24"
       inkscape:connector-curvature="0" />
    <path
       style="fill:#141414;fill-opacity:1;stroke-width:1.66667"
       d="m 15.8,11.4 c -2.758824,0 -5,2.241175 -5,5 0,2.758824 2.241176,5 5,5 2.758824,0 5,-2.241176 5,-5 0,-2.758825 -2.241176,-5 -5,-5 z"
       id="path38"
       inkscape:connector-curvature="0" />
  </g>
</svg>
