<?xml version="1.0" encoding="UTF-8" standalone="no"?>
<svg
   width="32"
   height="32"
   version="1.1"
   id="svg32"
   sodipodi:docname="window.svg"
   inkscape:version="1.1 (c68e22c387, 2021-05-23)"
   xmlns:inkscape="http://www.inkscape.org/namespaces/inkscape"
   xmlns:sodipodi="http://sodipodi.sourceforge.net/DTD/sodipodi-0.dtd"
   xmlns="http://www.w3.org/2000/svg"
   xmlns:svg="http://www.w3.org/2000/svg"
   xmlns:rdf="http://www.w3.org/1999/02/22-rdf-syntax-ns#"
   xmlns:cc="http://creativecommons.org/ns#"
   xmlns:dc="http://purl.org/dc/elements/1.1/">
  <metadata
     id="metadata38">
    <rdf:RDF>
      <cc:Work
         rdf:about="">
        <dc:format>image/svg+xml</dc:format>
        <dc:type
           rdf:resource="http://purl.org/dc/dcmitype/StillImage" />
      </cc:Work>
    </rdf:RDF>
  </metadata>
  <defs
     id="defs36" />
  <sodipodi:namedview
     inkscape:document-rotation="0"
     pagecolor="#ffffff"
     bordercolor="#000000"
     borderopacity="1"
     objecttolerance="10"
     gridtolerance="10"
     guidetolerance="10"
     inkscape:pageopacity="0"
     inkscape:pageshadow="2"
     inkscape:window-width="1920"
     inkscape:window-height="1007"
     id="namedview34"
     showgrid="false"
     inkscape:zoom="7.0600193"
     inkscape:cx="24.291718"
     inkscape:cy="20.396545"
     inkscape:window-x="0"
     inkscape:window-y="0"
     inkscape:window-maximized="1"
     inkscape:current-layer="svg32"
     inkscape:pagecheckerboard="0"
     inkscape:showpageshadow="false"
     inkscape:lockguides="true" />
  <g
     id="window-pin"
     transform="translate(86,-20)">
    <rect
       style="opacity:0.00100002"
       width="8"
       height="8"
       x="-46"
       y="44"
       id="rect2" />
    <path
       style="fill:#e6e6e6;fill-opacity:1;stroke-width:0.6875"
       d="m -41.062534,45.2 c -0.26761,0.267606 -0.322002,0.74549 -0.01066,1.267575 l -1.46094,0.977546 c -0.181635,-0.0733 -0.37661,-0.127939 -0.56933,-0.12891 -0.250513,-0.0014 -0.494142,0.07519 -0.708987,0.290039 l 1.03125,1.03125 -1.375,1.375 L -44.5,50.7 l 0.6875,-0.34375 1.375,-1.375 1.03125,1.03125 c 0.380514,-0.380514 0.331628,-0.862039 0.161129,-1.278322 l 0.977546,-1.460932 c 0.522085,0.311255 0.999969,0.25686 1.267575,-0.0108 z"
       id="path4" />
  </g>
  <g
     id="window-unpin"
     transform="translate(98,-20)">
    <rect
       style="opacity:0.00100002"
       width="8"
       height="8"
       x="-66"
       y="44"
       id="rect7" />
    <path
       style="fill:#00b8b8;fill-opacity:1;stroke-width:0.6875"
       d="m -61.162467,45.2 c -0.267609,0.267603 -0.322001,0.745494 -0.01073,1.267575 l -1.460942,0.97755 c -0.181634,-0.07334 -0.376608,-0.127941 -0.569331,-0.128917 -0.250514,-0.0018 -0.494141,0.07515 -0.708986,0.290042 l 1.03125,1.03125 -1.375,1.375 L -64.6,50.7 l 0.6875,-0.34375 1.375,-1.375 1.03125,1.03125 c 0.380518,-0.380518 0.331624,-0.862043 0.161125,-1.278325 l 0.97755,-1.460925 c 0.522086,0.311247 0.999973,0.256852 1.26758,-0.01073 z"
       id="path9" />
  </g>
  <rect
     style="opacity:0.00100002"
     width="22"
     height="22"
     x="-37.056976"
     y="14.618093"
     id="rect12" />
  <g
     id="22-22-window-close"
     transform="translate(0,-22)">
    <rect
       style="opacity:0.00100002"
       width="22"
       height="22"
       x="0"
       y="0"
       id="rect14" />
    <g
       transform="matrix(1.7493122,0,0,1.7499488,-107.95048,-909.47286)"
       id="g20">
      <g
         transform="translate(19,-242)"
         id="g18">
        <path
           style="fill:#00b8b8;fill-opacity:1"
           d="m 45.571203,764.57141 h 0.857142 c 0.0089,-1.1e-4 0.01782,-4e-4 0.02679,0 0.21853,0.01 0.437032,0.11021 0.589286,0.26785 l 1.955357,1.95536 1.982143,-1.95536 c 0.227678,-0.19757 0.382861,-0.26185 0.589285,-0.26785 h 0.857143 v 0.85714 c 0,0.24555 -0.02943,0.47199 -0.214285,0.64286 l -1.955357,1.95535 1.928571,1.92858 c 0.161304,0.16128 0.241064,0.38867 0.241071,0.61607 v 0.85714 h -0.857143 c -0.2274,-10e-6 -0.454788,-0.0798 -0.616071,-0.24107 l -1.955357,-1.95536 -1.955357,1.95536 c -0.161288,0.1613 -0.388684,0.24107 -0.616076,0.24107 h -0.857142 v -0.85714 c -3e-6,-0.22739 0.07977,-0.45479 0.241071,-0.61607 l 1.955357,-1.92858 -1.955357,-1.95535 c -0.180636,-0.16683 -0.259851,-0.40222 -0.241071,-0.64286 z"
           id="path16" />
      </g>
    </g>
  </g>
  <g
     id="window-close">
    <rect
       style="opacity:0.00100002"
       width="32"
       height="32"
       x="0"
       y="0"
       id="rect23" />
    <g
       transform="matrix(2.623967,0,0,2.624922,-162.42563,-1364.7087)"
       id="g29">
      <g
         transform="translate(19,-242)"
         id="g27">
        <path
           style="fill:#00b8b8;fill-opacity:1"
           d="m 45.571203,764.57141 h 0.857142 c 0.0089,-1.1e-4 0.01782,-4e-4 0.02679,0 0.21853,0.01 0.437032,0.11021 0.589286,0.26785 l 1.955357,1.95536 1.982143,-1.95536 c 0.227678,-0.19757 0.382861,-0.26185 0.589285,-0.26785 h 0.857143 v 0.85714 c 0,0.24555 -0.02943,0.47199 -0.214285,0.64286 l -1.955357,1.95535 1.928571,1.92858 c 0.161304,0.16128 0.241064,0.38867 0.241071,0.61607 v 0.85714 h -0.857143 c -0.2274,-10e-6 -0.454788,-0.0798 -0.616071,-0.24107 l -1.955357,-1.95536 -1.955357,1.95536 c -0.161288,0.1613 -0.388684,0.24107 -0.616076,0.24107 h -0.857142 v -0.85714 c -3e-6,-0.22739 0.07977,-0.45479 0.241071,-0.61607 l 1.955357,-1.92858 -1.955357,-1.95535 c -0.180636,-0.16683 -0.259851,-0.40222 -0.241071,-0.64286 z"
           id="path25" />
      </g>
    </g>
  </g>
</svg>
