<?xml version="1.0" encoding="UTF-8" standalone="no"?>
<!-- Generator: Adobe Illustrator 13.0.2, SVG Export Plug-In . SVG Version: 6.00 Build 14948)  -->

<svg
   version="1.1"
   id="Relax"
   x="0px"
   y="0px"
   width="22.387619"
   height="5.5209708"
   viewBox="0 0 22.387617 5.5209708"
   enable-background="new 0 0 779.617 170.079"
   xml:space="preserve"
   inkscape:version="1.3.2 (091e20ef0f, 2023-11-25)"
   sodipodi:docname="branding.svg"
   inkscape:export-xdpi="41.27"
   inkscape:export-ydpi="41.27"
   xmlns:inkscape="http://www.inkscape.org/namespaces/inkscape"
   xmlns:sodipodi="http://sodipodi.sourceforge.net/DTD/sodipodi-0.dtd"
   xmlns="http://www.w3.org/2000/svg"
   xmlns:svg="http://www.w3.org/2000/svg"
   xmlns:rdf="http://www.w3.org/1999/02/22-rdf-syntax-ns#"
   xmlns:cc="http://creativecommons.org/ns#"
   xmlns:dc="http://purl.org/dc/elements/1.1/">
  <style
   id="current-color-scheme"
   type="text/css">.ColorScheme-Text { color:#eceff4; }
</style>
  <metadata
   id="metadata27"><rdf:RDF><cc:Work
       rdf:about=""><dc:format>image/svg+xml</dc:format><dc:type
         rdf:resource="http://purl.org/dc/dcmitype/StillImage" /></cc:Work></rdf:RDF></metadata><defs
   id="defs25"><inkscape:perspective
     sodipodi:type="inkscape:persp3d"
     inkscape:vp_x="0 : 61.360467 : 1"
     inkscape:vp_y="0 : 999.99998 : 0"
     inkscape:vp_z="779.61697 : 61.360467 : 1"
     inkscape:persp3d-origin="389.8085 : 33.013968 : 1"
     id="perspective29" /><inkscape:perspective
     id="perspective3135"
     inkscape:persp3d-origin="0.49999997 : -23.345697 : 1"
     inkscape:vp_z="0.99999995 : -23.17903 : 1"
     inkscape:vp_y="0 : 999.99998 : 0"
     inkscape:vp_x="0 : -23.17903 : 1"
     sodipodi:type="inkscape:persp3d" /><inkscape:perspective
     id="perspective3415"
     inkscape:persp3d-origin="0.49999997 : -23.345697 : 1"
     inkscape:vp_z="0.99999995 : -23.17903 : 1"
     inkscape:vp_y="0 : 999.99998 : 0"
     inkscape:vp_x="0 : -23.17903 : 1"
     sodipodi:type="inkscape:persp3d" /></defs><sodipodi:namedview
   pagecolor="#201933"
   bordercolor="#000000"
   borderopacity="1"
   objecttolerance="10"
   gridtolerance="10"
   guidetolerance="10"
   inkscape:pageopacity="1"
   inkscape:pageshadow="2"
   inkscape:window-width="1920"
   inkscape:window-height="994"
   id="namedview23"
   showgrid="true"
   inkscape:zoom="22.627417"
   inkscape:cx="9.3249707"
   inkscape:cy="3.8448931"
   inkscape:window-x="0"
   inkscape:window-y="0"
   inkscape:window-maximized="1"
   inkscape:current-layer="g2"
   showguides="true"
   inkscape:guide-bbox="true"
   inkscape:pagecheckerboard="true"
   inkscape:lockguides="false"
   inkscape:showpageshadow="true"
   inkscape:deskcolor="#201933"><inkscape:grid
     type="xygrid"
     id="grid832"
     originx="-11.987493"
     originy="-4.3927169"
     spacingy="1"
     spacingx="1"
     units="px"
     visible="true" /></sodipodi:namedview><g
   id="text3090"
   style="font-style:normal;font-variant:normal;font-weight:500;font-stretch:normal;font-size:14px;line-height:125%;font-family:Ubuntu;-inkscape-font-specification:'Ubuntu Medium';letter-spacing:0px;word-spacing:0px;fill:#f07746;fill-opacity:1;stroke:none"
   transform="translate(-32.964632,-8.8633331)" /><g
   id="g2"
   transform="translate(0.13010207,-0.39271685)"><g
     id="brilliant"><text
       xml:space="preserve"
       style="font-style:italic;font-variant:normal;font-weight:600;font-stretch:condensed;font-size:5px;line-height:1.25;font-family:'Fira Sans Condensed';-inkscape-font-specification:'Fira Sans Condensed,  Semi-Bold Italic Condensed';fill:#0066ff;fill-opacity:1;stroke-width:0.190766"
       x="-0.099999994"
       y="9.4169216"
       id="text46923"
       transform="scale(1.0103674,0.98973897)"><tspan
         sodipodi:role="line"
         id="tspan46921"
         style="font-style:italic;font-variant:normal;font-weight:600;font-stretch:condensed;font-size:5px;font-family:'Fira Sans Condensed';-inkscape-font-specification:'Fira Sans Condensed,  Semi-Bold Italic Condensed';fill:#0066ff;fill-opacity:1;stroke-width:0.190766"
         x="-0.099999994"
         y="9.4169216" /></text><text
       xml:space="preserve"
       style="font-style:italic;font-variant:normal;font-weight:bold;font-stretch:normal;font-size:4px;line-height:1.25;font-family:'Noto Sans';-inkscape-font-specification:'Noto Sans, Bold Italic';font-variant-ligatures:normal;font-variant-caps:normal;font-variant-numeric:normal;font-variant-east-asian:normal;white-space:pre;fill:#008c8c;fill-opacity:1;stroke:none;stroke-width:0.718777"
       x="-0.23320942"
       y="4.9945431"
       id="text13306"
       transform="scale(1.0069086,0.99313881)"><tspan
         id="tspan13304"
         x="-0.23320942"
         y="4.9945431"
         style="font-style:italic;font-variant:normal;font-weight:bold;font-stretch:normal;font-size:4px;line-height:1.25;font-family:'Noto Sans';-inkscape-font-specification:'Noto Sans, Bold Italic';font-variant-ligatures:normal;font-variant-caps:normal;font-variant-numeric:normal;font-variant-east-asian:normal;fill:#008c8c;fill-opacity:1;stroke-width:0.718777">KDE-Story</tspan></text><path
       style="color:#d3dae3;fill:#008c8c;fill-opacity:1;stroke-width:0.146364"
       d="m 21.057342,0.39271685 -0.599941,0.086496 V 2.5461795 L 21.057342,2.3927206 V 1.5941688 l 0.599941,0.9414089 0.59994,-0.2142862 -0.749925,-0.8571447 0.750218,-0.92829365 -0.582071,-0.1431363 -0.618103,0.93694255 z m -1.22156,0.5605477 c -0.01418,0 -0.02837,0.00527 -0.03925,0.015625 L 19.560715,1.1934996 c -0.02176,0.020725 -0.01652,0.050328 0,0.075056 l 0.244019,0.3649564 c -0.01808,0.035745 -0.03374,0.072557 -0.04687,0.1102117 -5.84e-4,0.00163 -0.0015,0.00312 -0.002,0.00474 l -0.442628,0.093748 c -0.03005,0.00636 -0.05568,0.023711 -0.05568,0.05302 v 0.1403446 0.1403454 c 0,0.029308 0.02562,0.046655 0.05566,0.053015 l 0.442632,0.09375 c 9.56e-4,0.00276 0.0025,0.00534 0.0035,0.00809 0.01279,0.036577 0.02795,0.072361 0.04541,0.107143 L 19.560739,2.802597 c -0.01652,0.024725 -0.02176,0.054331 0,0.075055 l 0.235818,0.2246099 c 0.02176,0.020724 0.05675,0.020724 0.07851,0 l 0.382545,-0.2321432 c 0.03761,0.017421 0.07636,0.032519 0.116003,0.045201 0.0026,8.841e-4 0.005,0.00223 0.0076,0.00306 l 0.09814,0.4213172 c 7e-6,0.029305 0.0249,0.05301 0.05567,0.05301 h 0.333071 c 0.03077,0 0.04899,-0.024403 0.05566,-0.053014 l 0.09814,-0.4341502 c 0.04509,-0.016145 0.08886,-0.03545 0.130946,-0.057756 l 0.373497,0.2544649 c 0.02176,0.020724 0.05675,0.020724 0.07851,0 l 0.235818,-0.2246095 c 0.02176,-0.020724 0.01652,-0.05033 0,-0.075056 l -0.142076,-0.2053566 -0.01494,0.00531 c -0.03378,0.012081 -0.07182,-4.011e-4 -0.09052,-0.029856 L 21.443723,2.3383086 c -0.124479,0.2835995 -0.418449,0.4829806 -0.761351,0.4829806 -0.45559,0 -0.824917,-0.3517757 -0.824917,-0.7857147 0,-0.3329899 0.217897,-0.6169088 0.524946,-0.7313071 V 1.1477382 l -0.0011,0.00503 c -0.0033,0.00105 -0.0064,0.00279 -0.0097,0.00391 -0.03912,0.012366 -0.07738,0.027099 -0.114539,0.044087 L 19.875039,0.96890245 c -0.01089,-0.010363 -0.02507,-0.015624 -0.03926,-0.015624 z"
       class="ColorScheme-Text"
       id="path10-7" /></g></g></svg>
